<svg id="Capa_1" enable-background="new 0 0 512 512" height="512" viewBox="0 0 512 512" width="512" xmlns="http://www.w3.org/2000/svg"><g><g><path d="m481.842 414.97c-.837-4.121-4.214-7.332-8.379-7.94-4.168-.608-8.4 1.576-10.316 5.325-1.899 3.715-1.268 8.355 1.596 11.401 2.823 3.003 7.313 3.967 11.12 2.394 4.343-1.796 6.917-6.562 5.979-11.18z"/><path d="m464.389 453.609c-4.679-2.94-10.852-1.526-13.786 3.151-13.854 22.066-37.666 35.24-63.695 35.24-41.428 0-75.132-33.681-75.132-75.08s33.704-75.08 75.132-75.08c25.669 0 49.304 12.895 63.215 34.484l.364.57c2.961 4.66 9.137 6.04 13.803 3.08 4.662-2.961 6.041-9.141 3.08-13.803l-.429-.672c-15.847-24.593-41.65-40.271-70.33-43.171-2.943-28.863-27.403-51.459-57.044-51.459h-7.986c24.757-18.443 40.819-47.928 40.819-81.092 0-55.738-45.371-101.085-101.141-101.085-5.14 0-10.191.386-15.127 1.128-2.562-23.172-12.993-44.607-29.883-61.083-18.997-18.531-44.084-28.737-70.636-28.737-55.77 0-101.141 45.347-101.141 101.085 0 33.164 16.062 62.648 40.818 81.092h-7.984c-31.618 0-57.341 25.71-57.341 57.313v102.453c0 5.522 4.478 10 10 10h105.647v78.692c0 5.522 4.478 10 10 10h139.158c10.569 40.991 47.871 71.365 92.138 71.365 32.954 0 63.098-16.675 80.633-44.604 2.937-4.678 1.526-10.85-3.152-13.787zm-111.988-263.831c0 44.71-36.399 81.085-81.141 81.085s-81.141-36.375-81.141-81.085 36.399-81.085 81.141-81.085 81.141 36.375 81.141 81.085zm-277.929-88.693c0-44.71 36.399-81.085 81.141-81.085 42.959 0 77.74 32.55 80.906 74.838-36.02 13.208-62.501 46.341-66.004 85.969-4.892.906-9.886 1.364-14.902 1.364-44.741 0-81.141-36.375-81.141-81.086zm71.141 227.097v3.761h-95.648v-92.453c0-20.574 16.751-37.313 37.341-37.313h83.571c3.448 28.051 18.438 52.584 40.063 68.693h-7.986c-31.618 0-57.341 25.71-57.341 57.312zm20 92.453v-92.453c0-20.573 16.751-37.312 37.341-37.312h136.613c18.625 0 34.109 13.697 36.894 31.54-47.559 5.215-84.685 45.61-84.685 94.51 0 1.244.024 2.482.072 3.715z"/><path d="m386.908 450.418c5.522 0 10-4.478 10-10v-13.498h13.498c5.522 0 10-4.477 10-10 0-5.522-4.478-10-10-10h-13.498v-13.498c0-5.522-4.478-10-10-10s-10 4.478-10 10v13.498h-13.497c-5.522 0-10 4.478-10 10 0 5.523 4.478 10 10 10h13.497v13.498c0 5.522 4.477 10 10 10z"/></g></g></svg>