<svg height="512pt" viewBox="0 0 512 512" width="512pt" xmlns="http://www.w3.org/2000/svg"><path d="m512 256c0 141.386719-114.613281 256-256 256s-256-114.613281-256-256 114.613281-256 256-256 256 114.613281 256 256zm0 0" fill="#414952"/><path d="m130.902344 320.257812 184.742187 184.738282c96.894531-23.125 172.398438-101.328125 191.59375-199.691406l-184.105469-184.101563zm0 0" fill="#23272b"/><path d="m359.097656 214.375c0 76.582031-62.082031 138.664062-138.664062 138.664062-76.585938 0-138.667969-62.082031-138.667969-138.664062 0-76.585938 62.082031-138.667969 138.667969-138.667969 76.582031 0 138.664062 62.082031 138.664062 138.667969zm0 0" fill="#fff"/><path d="m220.433594 75.707031c-.113282 0-.226563.003907-.339844.003907v277.324218c.113281 0 .226562.003906.339844.003906 76.582031 0 138.664062-62.082031 138.664062-138.667968 0-76.582032-62.082031-138.664063-138.664062-138.664063zm0 0" fill="#e9edf5"/><path d="m277.683594 163.425781c0 31.617188-25.632813 57.25-57.25 57.25-31.621094 0-57.253906-25.632812-57.253906-57.25 0-31.621093 25.632812-57.253906 57.253906-57.253906 31.617187 0 57.25 25.632813 57.25 57.253906zm0 0" fill="#4a7aff"/><path d="m220.433594 106.171875c-.113282 0-.226563.007813-.339844.007813v114.488281c.113281.003906.226562.011719.339844.011719 31.617187 0 57.25-25.632813 57.25-57.253907 0-31.621093-25.632813-57.253906-57.25-57.253906zm0 0" fill="#0053bf"/><path d="m220.433594 353.039062c39.039062 0 74.304687-16.140624 99.503906-42.101562-7.820312-47.910156-49.382812-84.484375-99.503906-84.484375-50.125 0-91.6875 36.574219-99.507813 84.484375 25.199219 25.960938 60.464844 42.101562 99.507813 42.101562zm0 0" fill="#4a7aff"/><path d="m220.433594 226.453125c-.113282 0-.226563.007813-.339844.011719v126.570312c.113281 0 .226562.003906.339844.003906 39.039062 0 74.304687-16.136718 99.503906-42.101562-7.820312-47.910156-49.382812-84.484375-99.503906-84.484375zm0 0" fill="#0053bf"/><path d="m440.152344 304.375c0 54.207031-43.945313 98.152344-98.152344 98.152344s-98.152344-43.945313-98.152344-98.152344c0-54.210938 43.945313-98.152344 98.152344-98.152344s98.152344 43.941406 98.152344 98.152344zm0 0" fill="#53edf5"/><path d="m342 206.222656c-.160156 0-.316406.003906-.476562.003906v196.292969c.160156.003907.316406.007813.476562.007813 54.207031 0 98.152344-43.945313 98.152344-98.152344 0-54.210938-43.945313-98.152344-98.152344-98.152344zm0 0" fill="#33ccde"/><path d="m410 282.875h-46.5v-46.5h-43v46.5h-46.5v43h46.5v46.5h43v-46.5h46.5zm0 0" fill="#fff"/><path d="m363.5 282.875v-46.5h-21.976562v136h21.976562v-46.5h46.5v-43zm0 0" fill="#e9edf5"/></svg>