<svg height="511pt" viewBox="0 1 511 511.999" width="511pt" xmlns="http://www.w3.org/2000/svg"><path d="m93.136719 82.066406c2.363281 0 4.738281-.832031 6.644531-2.523437.007812-.007813.082031-.074219.085938-.078125 4.113281-3.671875 4.457031-9.964844.792968-14.085938-3.664062-4.121094-9.992187-4.480468-14.121094-.828125-.011718.011719-.0625.058594-.074218.066407-4.117188 3.675781-4.46875 9.980468-.800782 14.105468 1.976563 2.214844 4.71875 3.34375 7.472657 3.34375zm0 0"/><path d="m505.542969 197.007812c-1.148438-4.816406-5.648438-8.074218-10.582031-7.648437l-32.300782 2.769531-15.230468-36.761718 24.789062-20.871094c3.789062-3.191406 4.671875-8.675782 2.078125-12.890625-20.765625-33.738281-49.621094-62.582031-83.445313-83.417969-4.222656-2.597656-9.703124-1.71875-12.894531 2.070312l-20.859375 24.769532-36.773437-15.230469 2.769531-32.269531c.421875-4.9375-2.832031-9.4375-7.652344-10.585938-19.34375-4.597656-39.1875-6.9335935-58.988281-6.941406-19.796875.0078125-39.640625 2.34375-58.984375 6.941406-4.820312 1.148438-8.074219 5.648438-7.652344 10.585938l2.769532 32.269531-36.769532 15.230469-20.859375-24.769532c-3.558593-4.222656-9.867187-4.765624-14.089843-1.207031-4.226563 3.558594-4.765626 9.867188-1.207032 14.089844l25.570313 30.367187c2.808593 3.332032 7.449219 4.464844 11.476562 2.796876l50.292969-20.832032c4.027344-1.667968 6.507812-5.753906 6.136719-10.09375l-2.644531-30.816406c15.15625-3.023438 30.578124-4.558594 45.960937-4.5625 15.386719.003906 30.808594 1.539062 45.964844 4.5625l-2.644531 30.816406c-.371094 4.339844 2.113281 8.425782 6.136718 10.09375l50.292969 20.832032c4.027344 1.671874 8.671875.539062 11.476563-2.796876l19.917968-23.648437c25.667969 17.152344 47.917969 39.390625 65.023438 64.992187l-23.671875 19.929688c-3.332031 2.808594-4.464844 7.449219-2.796875 11.476562l20.828125 50.285157c1.667969 4.027343 5.753906 6.519531 10.09375 6.136719l30.84375-2.644532c6.007812 30.195313 5.996093 61.652344-.035157 91.941406l-30.804687-2.644531c-4.339844-.386719-8.425781 2.105469-10.09375 6.132813l-20.832031 50.296875c-1.667969 4.023437-.535156 8.667969 2.796875 11.476562l23.652343 19.910157c-17.148437 25.679687-39.386718 47.929687-64.984374 65.035156l-19.941407-23.679688c-2.808593-3.332031-7.449219-4.464844-11.476562-2.796875l-50.285157 20.828125c-4.023437 1.667969-6.507812 5.75-6.136718 10.09375l2.644531 30.835938c-15.097656 3.011718-30.484375 4.535156-45.863281 4.535156-.074219-.003906-.144532-.003906-.21875 0-15.371094 0-30.757813-1.523438-45.851563-4.535156l2.640625-30.835938c.375-4.34375-2.109375-8.425781-6.136718-10.09375l-50.28125-20.828125c-4.027344-1.667969-8.671876-.535156-11.476563 2.796875l-19.941406 23.679688c-25.601563-17.105469-47.835938-39.355469-64.984375-65.035156l23.652344-19.910157c3.332031-2.808593 4.464843-7.449219 2.796874-11.476562l-20.832031-50.296875c-1.667969-4.023438-5.753906-6.515625-10.09375-6.132813l-30.804687 2.644531c-6.027344-30.289062-6.039063-61.746093-.035156-91.941406l30.84375 2.644532c4.347656.386718 8.425781-2.109376 10.09375-6.136719l20.828124-50.285157c1.667969-4.027343.539063-8.667968-2.796874-11.476562l-23.671876-19.929688c6.261719-9.378906 13.207032-18.324218 20.722657-26.675781 3.691406-4.105469 3.359375-10.429687-.746094-14.125-4.105469-3.691406-10.429687-3.355469-14.125.746094-10.230469 11.371094-19.488281 23.753906-27.523437 36.804687-2.597657 4.21875-1.714844 9.703126 2.074218 12.894532l24.789063 20.871094-15.226563 36.761718-32.300781-2.769531c-4.941406-.433594-9.4375 2.832031-10.582031 7.648437-9.171875 38.53125-9.160156 79.335938.03125 117.996094 1.148437 4.816406 5.65625 8.078125 10.585937 7.648438l32.261719-2.769532 15.230469 36.769532-24.769531 20.851562c-3.792969 3.191406-4.671876 8.675782-2.074219 12.894532 20.832031 33.835937 49.675781 62.695312 83.40625 83.457031 4.21875 2.597656 9.703125 1.714843 12.890625-2.070313l20.882812-24.796875 36.765625 15.226563-2.769531 32.289062c-.421875 4.933594 2.832031 9.433594 7.648438 10.582032 19.28125 4.585937 39.089843 6.914062 58.871093 6.914062h.238281c19.789063 0 39.601563-2.328125 58.878907-6.914062 4.820312-1.148438 8.070312-5.648438 7.648437-10.582032l-2.765625-32.289062 36.761719-15.226563 20.882812 24.796875c3.1875 3.785156 8.671876 4.667969 12.890626 2.070313 33.730468-20.761719 62.574218-49.621094 83.410156-83.457031 2.597656-4.21875 1.714844-9.703126-2.074219-12.894532l-24.773437-20.851562 15.230468-36.769532 32.261719 2.769532c4.941406.433594 9.4375-2.828125 10.585937-7.648438 9.195313-38.660156 9.207032-79.464844.035157-117.996094zm0 0"/><path d="m420.664062 300c3.84375-14.347656 5.792969-29.152344 5.792969-44 0-93.730469-76.25-169.988281-169.972656-170-.011719 0-.019531 0-.027344 0-.007812 0-.015625 0-.027343 0-93.726563.011719-169.972657 76.269531-169.972657 170 0 70.84375 43.566407 131.695312 105.308594 157.195312.582031.308594 1.195313.5625 1.835937.753907 19.453126 7.765625 40.660157 12.046875 62.855469 12.046875 51.066407 0 98.949219-22.632813 131.363281-62.09375 3.503907-4.265625 2.886719-10.566406-1.382812-14.074219-4.265625-3.503906-10.566406-2.886719-14.074219 1.378906-12.867187 15.667969-28.503906 28.3125-45.90625 37.5v-100.542969c0-13.035156-8.363281-24.152343-20-28.28125v-17.273437c5.523438 0 10-4.480469 10-10 0-5.523437-4.476562-10-10-10v-25.554687c0-5.523438-4.476562-10-10-10h-10v-31.113282c0-13.035156-8.363281-24.152344-20-28.277344v-21.324218c78.0625 5.164062 140 70.308594 140 149.660156 0 13.101562-1.722656 26.164062-5.113281 38.820312-1.429688 5.335938 1.734375 10.816407 7.070312 12.246094 5.332032 1.433594 10.820313-1.734375 12.25-7.066406zm-314.207031-44c0-79.351562 61.9375-144.496094 140-149.660156v21.324218c-11.636719 4.125-20 15.242188-20 28.277344v31.113282h-10c-5.523437 0-10 4.476562-10 10v25.554687c-5.523437 0-10 4.476563-10 10 0 5.519531 4.476563 10 10 10v17.273437c-11.636719 4.128907-20 15.246094-20 28.28125v100.460938c-47.535156-25.1875-80-75.183594-80-132.625zm150 149.996094c-17.527343 0-34.351562-3.03125-50-8.578125v-109.253907c0-5.515624 4.484375-10 10-10h80c5.511719 0 10 4.484376 10 10v109.292969c-15.847656 5.589844-32.714843 8.539063-50 8.539063zm30-147.832032h-60v-15.554687h60zm-60-35.554687v-15.554687h60v15.554687zm20-35.554687v-31.113282c0-5.511718 4.484375-10 10-10 5.511719 0 10 4.488282 10 10v31.113282zm0 0"/><path d="m284.457031 364.828125h-56c-5.523437 0-10 4.480469-10 10 0 5.523437 4.476563 10 10 10h56c5.523438 0 10-4.476563 10-10 0-5.519531-4.476562-10-10-10zm0 0"/><path d="m284.457031 329.273438h-56c-5.523437 0-10 4.480468-10 10 0 5.523437 4.476563 10 10 10h56c5.523438 0 10-4.476563 10-10 0-5.519532-4.476562-10-10-10zm0 0"/><path d="m284.457031 293.71875h-56c-5.523437 0-10 4.480469-10 10 0 5.523438 4.476563 10 10 10h56c5.523438 0 10-4.476562 10-10 0-5.519531-4.476562-10-10-10zm0 0"/><path d="m405.410156 315.300781c-4.984375-2.363281-10.945312-.226562-13.316406 4.75-.019531.042969-.074219.15625-.09375.199219-2.304688 5.015625-.121094 10.984375 4.898438 13.289062 1.359374.625 2.785156.921876 4.1875.921876 3.773437 0 7.378906-2.144532 9.0625-5.804688.003906-.011719.027343-.0625.035156-.074219 2.351562-4.988281.210937-10.921875-4.773438-13.28125zm0 0"/></svg>