<?xml version="1.0"?>
<svg xmlns="http://www.w3.org/2000/svg" id="Layer_1" data-name="Layer 1" viewBox="0 0 128 128" width="512" height="512"><title>HOUSE REPAIR</title><path d="M64,74.172a5.961,5.961,0,1,0-5.961-5.961A5.967,5.967,0,0,0,64,74.172Zm0-8.422a2.461,2.461,0,1,1-2.461,2.461A2.463,2.463,0,0,1,64,65.75Z"/><path d="M115.64,86.371,96.865,79V72.638l1.283.794a4.942,4.942,0,0,0,5.2-8.4L90.091,56.821a28,28,0,0,0,1.083-3.286h6.445a1.75,1.75,0,0,0,1.75-1.75V41.452a1.75,1.75,0,0,0-1.75-1.75H91.175A27.7,27.7,0,0,0,88.1,32.3l4.56-4.559a1.749,1.749,0,0,0,0-2.475l-7.307-7.307a1.749,1.749,0,0,0-2.475,0l-4.56,4.559a27.68,27.68,0,0,0-7.405-3.07V13a1.75,1.75,0,0,0-1.75-1.75H58.833A1.75,1.75,0,0,0,57.083,13v6.445a27.68,27.68,0,0,0-7.405,3.07l-4.56-4.559a1.749,1.749,0,0,0-2.475,0l-7.307,7.307a1.749,1.749,0,0,0,0,2.475L39.9,32.3A27.7,27.7,0,0,0,36.825,39.7H30.381a1.75,1.75,0,0,0-1.75,1.75V51.786a1.75,1.75,0,0,0,1.75,1.75h6.445a28,28,0,0,0,1.083,3.285L24.651,65.028A4.942,4.942,0,0,0,26.12,74.04a4.978,4.978,0,0,0,1.142.133,4.906,4.906,0,0,0,2.592-.742l1.281-.793V79L12.36,86.371A1.749,1.749,0,0,0,11.25,88v27A1.75,1.75,0,0,0,13,116.75H115a1.75,1.75,0,0,0,1.75-1.75V88A1.749,1.749,0,0,0,115.64,86.371Zm-75.7-34.928a1.749,1.749,0,0,0-1.716-1.408H32.131V43.2h6.093a1.749,1.749,0,0,0,1.716-1.408,24.288,24.288,0,0,1,3.639-8.775,1.75,1.75,0,0,0-.219-2.208L39.049,26.5l4.832-4.832,4.311,4.31A1.75,1.75,0,0,0,50.4,26.2a24.278,24.278,0,0,1,8.774-3.637,1.751,1.751,0,0,0,1.408-1.716V14.75h6.834v6.093a1.751,1.751,0,0,0,1.408,1.716A24.278,24.278,0,0,1,77.6,26.2a1.75,1.75,0,0,0,2.209-.218l4.311-4.31L88.951,26.5l-4.311,4.31a1.75,1.75,0,0,0-.219,2.208,24.288,24.288,0,0,1,3.639,8.775A1.749,1.749,0,0,0,89.776,43.2h6.093v6.833H89.776a1.749,1.749,0,0,0-1.716,1.408,24.382,24.382,0,0,1-.988,3.509l-6.457-4a17.168,17.168,0,1,0-33.229,0l-6.458,4A24.378,24.378,0,0,1,39.939,51.443ZM50.542,49a13.668,13.668,0,1,1,26.917,0L66.6,42.28a4.912,4.912,0,0,0-5.2,0ZM28.011,70.456A1.442,1.442,0,0,1,26.493,68L63.241,45.256a1.453,1.453,0,0,1,1.518,0L101.507,68a1.442,1.442,0,0,1,.466,1.984,1.469,1.469,0,0,1-1.984.467L64.921,48.747a1.748,1.748,0,0,0-1.842,0ZM14.75,89.193l16.385-6.429V113.25H14.75ZM34.635,70.471,64,52.293,93.365,70.472v42.917H77.819V91a1.75,1.75,0,0,0-1.75-1.75H51.931A1.75,1.75,0,0,0,50.181,91v22.388H34.635Zm39.685,42.917H53.681V92.75H74.319Zm38.931-.138H96.865V82.764l16.385,6.429Z"/></svg>
