<svg id="Layer_1" enable-background="new 0 0 64 64" height="512" viewBox="0 0 64 64" width="512" xmlns="http://www.w3.org/2000/svg"><g><g id="LINE_260_"><g><path d="m25.768 15.5c-.552 0-1-.447-1-1v-1c0-.553.448-1 1-1s1 .447 1 1v1c0 .553-.448 1-1 1z"/></g></g><g id="LINE_261_"><g><path d="m32 15.5c-.552 0-1-.447-1-1v-1c0-.553.448-1 1-1s1 .447 1 1v1c0 .553-.448 1-1 1z"/></g></g><g id="LINE_262_"><g><path d="m38.232 15.5c-.552 0-1-.447-1-1v-1c0-.553.448-1 1-1s1 .447 1 1v1c0 .553-.448 1-1 1z"/></g></g><g id="LINE_263_"><g><path d="m19.092 43c-.332 0-.657-.165-.847-.467-.295-.467-.155-1.085.313-1.379l5.414-3.414c.467-.296 1.084-.155 1.379.313.295.467.155 1.085-.313 1.379l-5.414 3.414c-.165.104-.35.154-.532.154z"/></g></g><g id="LINE_264_"><g><path d="m24.504 43c-.182 0-.367-.05-.532-.154l-5.414-3.414c-.467-.294-.607-.912-.313-1.379.293-.468.912-.608 1.379-.313l5.414 3.414c.467.294.607.912.313 1.379-.19.302-.515.467-.847.467z"/></g></g><g id="ARC_161_"><g><path d="m13 59c-1.654 0-3-1.346-3-3 0-.553.448-1 1-1s1 .447 1 1c0 .552.449 1 1 1 .552 0 1 .447 1 1s-.448 1-1 1z"/></g></g><g id="ARC_162_"><g><path d="m51 59c-.552 0-1-.447-1-1s.448-1 1-1c.551 0 1-.448 1-1 0-.553.448-1 1-1s1 .447 1 1c0 1.654-1.346 3-3 3z"/></g></g><g id="LINE_265_"><g><path d="m51 59h-38c-.552 0-1-.447-1-1s.448-1 1-1h38c.552 0 1 .447 1 1s-.448 1-1 1z"/></g></g><g id="ARC_163_"><g><path d="m11 13c-.552 0-1-.447-1-1 0-1.654 1.346-3 3-3 .552 0 1 .447 1 1s-.448 1-1 1c-.551 0-1 .448-1 1 0 .553-.448 1-1 1z"/></g></g><g id="ARC_164_"><g><path d="m53 13c-.552 0-1-.447-1-1 0-.552-.449-1-1-1-.552 0-1-.447-1-1s.448-1 1-1c1.654 0 3 1.346 3 3 0 .553-.448 1-1 1z"/></g></g><g id="LINE_266_"><g><path d="m53 57c-.552 0-1-.447-1-1v-44c0-.553.448-1 1-1s1 .447 1 1v44c0 .553-.448 1-1 1z"/></g></g><g id="LINE_267_"><g><path d="m11 57c-.552 0-1-.447-1-1v-44c0-.553.448-1 1-1s1 .447 1 1v44c0 .553-.448 1-1 1z"/></g></g><g id="LINE_268_"><g><path d="m42 19h-20c-.552 0-1-.447-1-1s.448-1 1-1h20c.552 0 1 .447 1 1s-.448 1-1 1z"/></g></g><g id="ARC_165_"><g><path d="m22 19c-1.654 0-3-1.346-3-3 0-.553.448-1 1-1s1 .447 1 1c0 .552.449 1 1 1 .552 0 1 .447 1 1s-.448 1-1 1z"/></g></g><g id="ARC_166_"><g><path d="m42 19c-.552 0-1-.447-1-1s.448-1 1-1c.551 0 1-.448 1-1 0-.553.448-1 1-1s1 .447 1 1c0 1.654-1.346 3-3 3z"/></g></g><g id="LINE_269_"><g><path d="m47 15h-3c-.552 0-1-.447-1-1s.448-1 1-1h3c.552 0 1 .447 1 1s-.448 1-1 1z"/></g></g><g id="ARC_167_"><g><path d="m49 17c-.552 0-1-.447-1-1 0-.552-.449-1-1-1-.552 0-1-.447-1-1s.448-1 1-1c1.654 0 3 1.346 3 3 0 .553-.448 1-1 1z"/></g></g><g id="LINE_270_"><g><path d="m20 15h-3c-.552 0-1-.447-1-1s.448-1 1-1h3c.552 0 1 .447 1 1s-.448 1-1 1z"/></g></g><g id="ARC_168_"><g><path d="m15 17c-.552 0-1-.447-1-1 0-1.654 1.346-3 3-3 .552 0 1 .447 1 1s-.448 1-1 1c-.551 0-1 .448-1 1 0 .553-.448 1-1 1z"/></g></g><g id="LINE_271_"><g><path d="m15 53c-.552 0-1-.447-1-1v-36c0-.553.448-1 1-1s1 .447 1 1v36c0 .553-.448 1-1 1z"/></g></g><g id="ARC_169_"><g><path d="m17 55c-1.654 0-3-1.346-3-3 0-.553.448-1 1-1s1 .447 1 1c0 .552.449 1 1 1 .552 0 1 .447 1 1s-.448 1-1 1z"/></g></g><g id="LINE_272_"><g><path d="m39.343 55h-22.343c-.552 0-1-.447-1-1s.448-1 1-1h22.343c.552 0 1 .447 1 1s-.447 1-1 1z"/></g></g><g id="ARC_170_"><g><path d="m39.343 55c-.552 0-1-.447-1-1s.448-1 1-1c.79 0 1.563-.32 2.121-.879.391-.391 1.023-.391 1.414 0s.391 1.023 0 1.414c-.944.944-2.2 1.465-3.535 1.465z"/></g></g><g id="LINE_273_"><g><path d="m49 45.343c-.552 0-1-.447-1-1v-28.343c0-.553.448-1 1-1s1 .447 1 1v28.343c0 .553-.448 1-1 1z"/></g></g><g id="LINE_274_"><g><path d="m42.171 53.828c-.256 0-.512-.098-.707-.293-.391-.391-.391-1.023 0-1.414l5.657-5.656c.391-.391 1.023-.391 1.414 0s.391 1.023 0 1.414l-5.657 5.656c-.195.195-.451.293-.707.293z"/></g></g><g id="ARC_171_"><g><path d="m47.829 48.172c-.256 0-.512-.098-.707-.293-.391-.391-.391-1.023 0-1.414.566-.567.878-1.32.878-2.122 0-.553.448-1 1-1s1 .447 1 1c0 1.336-.52 2.592-1.464 3.536-.196.195-.452.293-.707.293z"/></g></g><g id="LINE_275_"><g><path d="m41 54.641c-.552 0-1-.447-1-1v-5.641c0-.553.448-1 1-1s1 .447 1 1v5.641c0 .552-.448 1-1 1z"/></g></g><g id="LINE_276_"><g><path d="m48.641 47h-5.641c-.552 0-1-.447-1-1s.448-1 1-1h5.641c.552 0 1 .447 1 1s-.448 1-1 1z"/></g></g><g id="ARC_172_"><g><path d="m41 49c-.552 0-1-.447-1-1 0-1.654 1.346-3 3-3 .552 0 1 .447 1 1s-.448 1-1 1c-.551 0-1 .448-1 1 0 .553-.448 1-1 1z"/></g></g><g id="LINE_277_"><g><path d="m43.909 26h-15.818c-.552 0-1-.447-1-1s.448-1 1-1h15.817c.552 0 1 .447 1 1s-.447 1-.999 1z"/></g></g><g id="LINE_278_"><g><path d="m43.909 34h-15.818c-.552 0-1-.447-1-1s.448-1 1-1h15.817c.552 0 1 .447 1 1s-.447 1-.999 1z"/></g></g><g id="LINE_279_"><g><path d="m43.909 42h-15.818c-.552 0-1-.447-1-1s.448-1 1-1h15.817c.552 0 1 .447 1 1s-.447 1-.999 1z"/></g></g><g id="LINE_280_"><g><path d="m21.091 35c-.256 0-.512-.098-.707-.293l-2-2c-.391-.391-.391-1.023 0-1.414s1.023-.391 1.414 0l2 2c.391.391.391 1.023 0 1.414-.195.195-.451.293-.707.293z"/></g></g><g id="LINE_281_"><g><path d="m21.091 35c-.256 0-.512-.098-.707-.293-.391-.391-.391-1.023 0-1.414l3.414-3.414c.391-.391 1.023-.391 1.414 0s.391 1.023 0 1.414l-3.414 3.414c-.195.195-.451.293-.707.293z"/></g></g><g id="LINE_282_"><g><path d="m21.091 27c-.256 0-.512-.098-.707-.293l-2-2c-.391-.391-.391-1.023 0-1.414s1.023-.391 1.414 0l2 2c.391.391.391 1.023 0 1.414-.195.195-.451.293-.707.293z"/></g></g><g id="LINE_283_"><g><path d="m21.091 27c-.256 0-.512-.098-.707-.293-.391-.391-.391-1.023 0-1.414l3.414-3.414c.391-.391 1.023-.391 1.414 0s.391 1.023 0 1.414l-3.414 3.414c-.195.195-.451.293-.707.293z"/></g></g><g id="ARC_173_"><g><path d="m26 11c-.552 0-1-.447-1-1 0-2.757 2.243-5 5-5 .552 0 1 .447 1 1s-.448 1-1 1c-1.654 0-3 1.346-3 3 0 .553-.448 1-1 1z"/></g></g><g id="LINE_284_"><g><path d="m34 7h-4c-.552 0-1-.447-1-1s.448-1 1-1h4c.552 0 1 .447 1 1s-.448 1-1 1z"/></g></g><g id="ARC_174_"><g><path d="m38 11c-.552 0-1-.447-1-1 0-1.654-1.346-3-3-3-.552 0-1-.447-1-1s.448-1 1-1c2.757 0 5 2.243 5 5 0 .553-.448 1-1 1z"/></g></g><g id="LINE_285_"><g><path d="m20 17c-.552 0-1-.447-1-1v-4c0-.553.448-1 1-1s1 .447 1 1v4c0 .553-.448 1-1 1z"/></g></g><g id="LINE_286_"><g><path d="m26 11h-4c-.552 0-1-.447-1-1s.448-1 1-1h4c.552 0 1 .447 1 1s-.448 1-1 1z"/></g></g><g id="ARC_175_"><g><path d="m20 13c-.552 0-1-.447-1-1 0-1.654 1.346-3 3-3 .552 0 1 .447 1 1s-.448 1-1 1c-.551 0-1 .448-1 1 0 .553-.448 1-1 1z"/></g></g><g id="LINE_287_"><g><path d="m42 11h-4c-.552 0-1-.447-1-1s.448-1 1-1h4c.552 0 1 .447 1 1s-.448 1-1 1z"/></g></g><g id="LINE_288_"><g><path d="m44 17c-.552 0-1-.447-1-1v-4c0-.553.448-1 1-1s1 .447 1 1v4c0 .553-.448 1-1 1z"/></g></g><g id="ARC_176_"><g><path d="m44 13c-.552 0-1-.447-1-1 0-.552-.449-1-1-1-.552 0-1-.447-1-1s.448-1 1-1c1.654 0 3 1.346 3 3 0 .553-.448 1-1 1z"/></g></g><g id="LINE_289_"><g><path d="m16.343 11h-3.343c-.552 0-1-.447-1-1s.448-1 1-1h3.343c.552 0 1 .447 1 1s-.447 1-1 1z"/></g></g><g id="LINE_290_"><g><path d="m51 11h-3.343c-.552 0-1-.447-1-1s.448-1 1-1h3.343c.552 0 1 .447 1 1s-.448 1-1 1z"/></g></g></g></svg>