<?xml version="1.0" encoding="iso-8859-1"?>
<!-- Generator: Adobe Illustrator 19.0.0, SVG Export Plug-In . SVG Version: 6.00 Build 0)  -->
<svg version="1.1" id="Capa_1" xmlns="http://www.w3.org/2000/svg" xmlns:xlink="http://www.w3.org/1999/xlink" x="0px" y="0px"
	 viewBox="0 0 480 480" style="enable-background:new 0 0 480 480;" xml:space="preserve">
<g>
	<g>
		<path d="M472,88h-40V24c0-4.418-3.582-8-8-8h-64c-4.418,0-8,3.582-8,8v64H64V56c0-4.418-3.582-8-8-8H32C14.327,48,0,62.327,0,80
			v352c0,17.673,14.327,32,32,32h440c4.418,0,8-3.582,8-8V96C480,91.582,476.418,88,472,88z M368,32h48v24h-48V32z M400,232V72h16
			v160H400z M411.056,248L392,286.112L372.944,248H411.056z M368,72h16v160h-16V72z M16,80c0-8.837,7.163-16,16-16h16v336H32
			c-5.619-0.009-11.141,1.474-16,4.296V80z M464,448H32c-8.837,0-16-7.163-16-16s7.163-16,16-16h24c4.418,0,8-3.582,8-8V104h288v136
			c0,0.104,0.056,0.192,0.056,0.296c0.034,0.84,0.202,1.669,0.496,2.456c0.072,0.176,0.112,0.352,0.184,0.528
			c0.072,0.176,0.056,0.2,0.104,0.296l32,64c1.971,3.954,6.774,5.562,10.729,3.591c1.555-0.775,2.816-2.036,3.591-3.591l32-64
			c0.048-0.096,0.056-0.2,0.104-0.296c0.048-0.096,0.112-0.352,0.184-0.528c0.295-0.79,0.462-1.622,0.496-2.464
			c0-0.096,0.056-0.184,0.056-0.288V104h32V448z"/>
	</g>
</g>
<g>
	<g>
		<path d="M424,352H104c-4.418,0-8,3.582-8,8v56c0,4.418,3.582,8,8,8h320c4.418,0,8-3.582,8-8v-56C432,355.582,428.418,352,424,352z
			 M416,408H112v-40h16v24h16v-24h16v16h16v-16h16v24h16v-24h16v16h16v-16h16v24h16v-24h16v16h16v-16h16v24h16v-24h16v16h16v-16h16
			v24h16v-24h16V408z"/>
	</g>
</g>
<g>
	<g>
		<path d="M301.656,314.344l-192-192c-3.125-3.124-8.19-3.123-11.314,0.002C96.843,123.845,96,125.879,96,128v192
			c0,4.418,3.582,8,8,8h192c4.418-0.001,7.999-3.583,7.998-8.002C303.998,317.878,303.155,315.844,301.656,314.344z M112,312
			V147.312L276.688,312H112z"/>
	</g>
</g>
<g>
	<g>
		<path d="M160,232c-17.673,0-32,14.327-32,32c0,17.673,14.327,32,32,32s32-14.327,32-32C192,246.327,177.673,232,160,232z M160,280
			c-8.837,0-16-7.163-16-16s7.163-16,16-16s16,7.163,16,16S168.837,280,160,280z"/>
	</g>
</g>
<g>
	<g>
		<path d="M320,128h-96c-4.418,0-8,3.582-8,8v48c0,13.255,10.745,24,24,24h80c4.418,0,8-3.582,8-8v-64
			C328,131.582,324.418,128,320,128z M248,192h-8c-4.418,0-8-3.582-8-8v-40h16V192z M312,192h-48v-48h48V192z"/>
	</g>
</g>
<g>
	<g>
		<rect x="280" y="160" width="16" height="16"/>
	</g>
</g>
<g>
	<g>
		<rect x="120" y="56" width="16" height="16"/>
	</g>
</g>
<g>
	<g>
		<rect x="152" y="56" width="136" height="16"/>
	</g>
</g>
<g>
</g>
<g>
</g>
<g>
</g>
<g>
</g>
<g>
</g>
<g>
</g>
<g>
</g>
<g>
</g>
<g>
</g>
<g>
</g>
<g>
</g>
<g>
</g>
<g>
</g>
<g>
</g>
<g>
</g>
</svg>
