<svg height="512pt" viewBox="-1 0 512 512" width="512pt" xmlns="http://www.w3.org/2000/svg"><path d="m413.28125 168.5v75.5c0 9.675781 15 9.675781 15 0v-75.5c0-9.675781-15-9.675781-15 0zm0 0"/><path d="m450.160156 251.5c4.144532 0 7.5-3.359375 7.5-7.5v-75.5c0-9.675781-15-9.675781-15 0v75.5c0 4.140625 3.359375 7.5 7.5 7.5zm0 0"/><path d="m261.898438 89c-4.140626 0-7.5 3.359375-7.5 7.5v233c0 4.140625 3.359374 7.5 7.5 7.5 4.144531 0 7.5-3.359375 7.5-7.5v-233c0-4.140625-3.359376-7.5-7.5-7.5zm0 0"/><path d="m188.261719 89c-4.144531 0-7.5 3.359375-7.5 7.5v233c0 4.140625 3.355469 7.5 7.5 7.5 4.140625 0 7.5-3.359375 7.5-7.5v-233c0-4.140625-3.359375-7.5-7.5-7.5zm0 0"/><path d="m226.148438 89c-4.144532 0-7.5 3.359375-7.5 7.5v233c0 4.140625 3.355468 7.5 7.5 7.5 4.140624 0 7.5-3.359375 7.5-7.5v-233c0-4.140625-3.359376-7.5-7.5-7.5zm0 0"/><path d="m43.117188 408.820312h91.78125c9.671874 0 9.671874-15 0-15h-91.78125c-9.675782 0-9.675782 15 0 15zm0 0"/><path d="m43.117188 440.625h91.78125c9.671874 0 9.671874-15 0-15h-91.78125c-9.675782 0-9.675782 15 0 15zm0 0"/><path d="m43.117188 472.433594h91.78125c9.671874 0 9.671874-15 0-15h-91.78125c-9.675782 0-9.675782 15 0 15zm0 0"/><path d="m58.84375 152.113281c-9.652344 0-9.667969 15 0 15 9.648438 0 9.667969-15 0-15zm0 0"/><path d="m89.007812 152.113281c-9.652343 0-9.667968 15 0 15 9.652344 0 9.667969-15 0-15zm0 0"/><path d="m119.175781 152.113281c-9.652343 0-9.667969 15 0 15 9.652344 0 9.667969-15 0-15zm0 0"/><path d="m58.84375 185.503906c-9.652344 0-9.667969 15 0 15 9.648438 0 9.667969-15 0-15zm0 0"/><path d="m89.007812 185.503906c-9.652343 0-9.667968 15 0 15 9.652344 0 9.667969-15 0-15zm0 0"/><path d="m119.175781 185.503906c-9.652343 0-9.667969 15 0 15 9.652344 0 9.667969-15 0-15zm0 0"/><path d="m58.84375 218.894531c-9.652344 0-9.667969 15 0 15 9.648438 0 9.667969-15 0-15zm0 0"/><path d="m89.007812 218.894531c-9.652343 0-9.667968 15 0 15 9.652344 0 9.667969-15 0-15zm0 0"/><path d="m119.175781 218.894531c-9.652343 0-9.667969 15 0 15 9.652344 0 9.667969-15 0-15zm0 0"/><path d="m58.84375 252.285156c-9.652344 0-9.667969 15 0 15 9.648438 0 9.667969-15 0-15zm0 0"/><path d="m89.007812 252.285156c-9.652343 0-9.667968 15 0 15 9.652344 0 9.667969-15 0-15zm0 0"/><path d="m119.175781 252.285156c-9.652343 0-9.667969 15 0 15 9.652344 0 9.667969-15 0-15zm0 0"/><path d="m58.84375 285.675781c-9.652344 0-9.667969 15 0 15 9.648438 0 9.667969-15 0-15zm0 0"/><path d="m89.007812 285.675781c-9.652343 0-9.667968 15 0 15 9.652344 0 9.667969-15 0-15zm0 0"/><path d="m119.175781 285.675781c-9.652343 0-9.667969 15 0 15 9.652344 0 9.667969-15 0-15zm0 0"/><path d="m58.84375 319.066406c-9.652344 0-9.667969 15 0 15 9.648438 0 9.667969-15 0-15zm0 0"/><path d="m89.007812 319.066406c-9.652343 0-9.667968 15 0 15 9.652344 0 9.667969-15 0-15zm0 0"/><path d="m119.175781 319.066406c-9.652343 0-9.667969 15 0 15 9.652344 0 9.667969-15 0-15zm0 0"/><path d="m373.824219 327.445312c4.144531 0 7.5-3.355468 7.5-7.5v-20.890624c0-9.675782-15-9.675782-15 0v20.890624c0 4.144532 3.355469 7.5 7.5 7.5zm0 0"/><path d="m336.472656 376.445312c4.140625 0 7.5-3.355468 7.5-7.5v-69.445312c.007813-10.074219-14.957031-10.222656-15 0v69.445312c0 4.144532 3.355469 7.5 7.5 7.5zm0 0"/><path d="m373.824219 424c4.144531 0 7.5-3.359375 7.5-7.5v-68.445312c0-9.675782-15-9.675782-15 0v68.445312c0 4.140625 3.355469 7.5 7.5 7.5zm0 0"/><path d="m336.472656 425.445312c4.140625 0 7.5-3.355468 7.5-7.5v-20.890624c0-9.675782-15-9.675782-15 0v20.890624c0 4.144532 3.355469 7.5 7.5 7.5zm0 0"/><path d="m336.472656 474.445312c4.140625 0 7.5-3.355468 7.5-7.5v-20.890624c0-9.675782-15-9.675782-15 0v20.890624c0 4.144532 3.355469 7.5 7.5 7.5zm0 0"/><path d="m373.824219 474.445312c4.144531 0 7.5-3.355468 7.5-7.5v-20.890624c0-9.675782-15-9.675782-15 0v20.890624c0 4.144532 3.355469 7.5 7.5 7.5zm0 0"/><path d="m510.5625 126.992188-11-31c-1.0625-2.992188-3.894531-4.992188-7.070312-4.992188h-14.082032l-34.371094-57.832031c-1.351562-2.273438-3.804687-3.667969-6.449218-3.667969h-9.308594v-22c0-9.675781-15-9.675781-15 0v22h-13.578125c-2.789063 0-5.347656 1.550781-6.644531 4.019531l-30.105469 57.480469h-13.882813c-3.171874 0-6.003906 2-7.066406 4.992188l-11 31c-1.695312 4.78125 2.078125 10.007812 7.066406 10.007812h11.445313v69.34375l-43.832031-36.835938v-113.007812c0-4.140625-3.359375-7.5-7.5-7.5h-19.714844v-41.5c0-4.140625-3.355469-7.5-7.5-7.5h-91.78125c-4.140625 0-7.5 3.359375-7.5 7.5v41.5h-19.710938c-4.144531 0-7.5 3.359375-7.5 7.5v57.039062h-15v-73.992187c0-5.414063-5.980468-9.144531-10.855468-6.707031l-65.9375 33c-2.539063 1.273437-4.144532 3.867187-4.144532 6.707031v40.992187h-21.847656c-4.144531 0-7.5 3.359376-7.5 7.5v234.214844h-11.691406c-4.144531 0-7.5 3.355469-7.5 7.5v69.246094c0 9.675781 15 9.675781 15 0v-61.746094h148.015625v126.746094h-148.015625v-29c0-9.675781-15-9.675781-15 0v36.5c0 4.140625 3.355469 7.5 7.5 7.5h421.996094c9.675781 0 9.675781-15 0-15h-9.886719v-228.25c0-2.214844-.980469-4.316406-2.675781-5.742188l-18.769532-15.777343c.46875-.976563.738282-2.070313.738282-3.230469v-75.5c0-9.675781-15-9.675781-15 0v66.746094l-19.386719-16.292969v-81.453125h112.53125v359.5h-9.550781c-9.675782 0-9.675782 15 0 15h17.050781c4.144531 0 7.5-3.359375 7.5-7.5v-367.5h11.445313c4.976562 0 8.757812-5.242188 7.070312-10.007812zm-323.875-111.992188h76.78125v34h-76.78125zm-123.148438 62.183594 50.9375-25.496094v61.851562h-50.9375zm-29.347656 278.070312v-226.714844h20.765625c.355469.050782.714844.089844 1.082031.089844h65.9375c.371094 0 .730469-.039062 1.085938-.089844h20.765625v226.714844zm370.417969 141.746094h-98.925781v-235c0-4.140625-3.355469-7.5-7.5-7.5-4.144532 0-7.5 3.359375-7.5 7.5v235h-112.667969v-134.246094c0-4.144531-3.355469-7.5-7.5-7.5h-11.039063v-291.253906h131.207032v160c0 4.140625 3.355468 7.5 7.5 7.5 4.144531 0 7.5-3.359375 7.5-7.5v-34.898438l98.925781 83.140626zm-.367187-452.5h29.082031l27.636719 46.5h-81.074219zm-55.550782 77.5 5.679688-16h132.824218l5.679688 16zm0 0"/><path d="m450.417969 276.5c-9.652344 0-9.667969 15 0 15 9.652343 0 9.667969-15 0-15zm0 0"/><path d="m450.417969 312.699219c-9.652344 0-9.667969 15 0 15 9.652343 0 9.667969-15 0-15zm0 0"/><path d="m450.417969 348.898438c-9.652344 0-9.667969 15 0 15 9.652343 0 9.667969-15 0-15zm0 0"/><path d="m450.417969 385.101562c-9.652344 0-9.667969 15 0 15 9.652343 0 9.667969-15 0-15zm0 0"/><path d="m450.417969 421.300781c-9.652344 0-9.667969 15 0 15 9.652343 0 9.667969-15 0-15zm0 0"/><path d="m450.417969 457.5c-9.652344 0-9.667969 15 0 15 9.652343 0 9.667969-15 0-15zm0 0"/></svg>