<svg id="Icons" height="512" viewBox="0 0 74 74" width="512" xmlns="http://www.w3.org/2000/svg"><path d="m37 71.983a34.89 34.89 0 0 1 -24.749-10.234 1 1 0 0 1 1.414-1.414 33.006 33.006 0 0 0 53.589-36.535 1 1 0 1 1 1.833-.8 34.988 34.988 0 0 1 -32.087 48.983z"/><path d="m5.016 49.557a1 1 0 0 1 -.941-.661 35.005 35.005 0 0 1 57.674-36.645 1 1 0 0 1 -1.414 1.414 33 33 0 0 0 -46.669 0 33.153 33.153 0 0 0 -7.709 34.552 1 1 0 0 1 -.941 1.34z"/><path d="m61.042 13.958h-6.632a1 1 0 0 1 0-2h5.632v-5.632a1 1 0 0 1 2 0v6.632a1 1 0 0 1 -1 1z"/><path d="m12.958 68.674a1 1 0 0 1 -1-1v-6.632a1 1 0 0 1 1-1h6.632a1 1 0 0 1 0 2h-5.632v5.632a1 1 0 0 1 -1 1z"/><path d="m52.882 47.924h-21.268a5.628 5.628 0 0 1 -5.474-4.424l-4.576-21.311h-4.446a1 1 0 0 1 0-2h5.255a1 1 0 0 1 .978.79l4.745 22.1a3.618 3.618 0 0 0 3.519 2.843h21.267a1 1 0 0 1 0 2z"/><path d="m47.983 41.048h-21.567a1 1 0 1 1 0-2h21.567a2 2 0 0 0 1.988-1.7l1.523-9.838h-27.983a1 1 0 0 1 0-2h29.15a1 1 0 0 1 .988 1.153l-1.7 10.991a3.991 3.991 0 0 1 -3.966 3.394z"/><path d="m47.695 57.811a4.085 4.085 0 1 1 4.086-4.085 4.09 4.09 0 0 1 -4.086 4.085zm0-6.171a2.085 2.085 0 1 0 2.086 2.085 2.088 2.088 0 0 0 -2.086-2.085z"/><path d="m33.743 57.811a4.085 4.085 0 1 1 4.085-4.085 4.09 4.09 0 0 1 -4.085 4.085zm0-6.171a2.085 2.085 0 1 0 2.085 2.085 2.088 2.088 0 0 0 -2.085-2.085z"/></svg>