<?xml version="1.0" encoding="iso-8859-1"?>
<!-- Generator: Adobe Illustrator 19.0.0, SVG Export Plug-In . SVG Version: 6.00 Build 0)  -->
<svg version="1.1" id="Capa_1" xmlns="http://www.w3.org/2000/svg" xmlns:xlink="http://www.w3.org/1999/xlink" x="0px" y="0px"
	 viewBox="0 0 512 512" style="enable-background:new 0 0 512 512;" xml:space="preserve">
<g>
	<g>
		<path d="M323.738,304.855c-4.142,0-7.5,3.358-7.5,7.5v120.596H99.063V112.205c0-9.108,7.41-16.518,16.518-16.518h8.008
			c4.142,0,7.5-3.358,7.5-7.5c0-4.142-3.358-7.5-7.5-7.5h-8.008c-17.379,0-31.518,14.139-31.518,31.518v368.277
			c0,17.379,14.139,31.518,31.518,31.518H299.72c17.379,0,31.518-14.139,31.518-31.518V312.355
			C331.238,308.213,327.88,304.855,323.738,304.855z M316.238,480.482c0,9.108-7.41,16.518-16.518,16.518H115.581
			c-9.108,0-16.518-7.41-16.518-16.518v-32.53h217.175V480.482z"/>
	</g>
</g>
<g>
	<g>
		<path d="M284.334,0c-79.183,0-143.602,64.419-143.602,143.602s64.419,143.603,143.602,143.603s143.603-64.42,143.603-143.603
			S363.517,0,284.334,0z M284.334,272.205c-70.912,0-128.602-57.691-128.602-128.603S213.423,15,284.334,15
			s128.603,57.69,128.603,128.602S355.246,272.205,284.334,272.205z"/>
	</g>
</g>
<g>
	<g>
		<path d="M227.666,464.976h-40.03c-4.142,0-7.5,3.358-7.5,7.5c0,4.142,3.358,7.5,7.5,7.5h40.03c4.142,0,7.5-3.358,7.5-7.5
			C235.166,468.334,231.808,464.976,227.666,464.976z"/>
	</g>
</g>
<g>
	<g>
		<path d="M359.147,176.351l-22.644-22.645c-7.606-7.606-19.983-7.606-27.59,0l-2.613,2.613
			c-6.032-5.268-12.038-10.887-17.917-16.766c-5.88-5.88-11.5-11.886-16.766-17.917l2.613-2.613c7.606-7.606,7.606-19.983,0-27.589
			L251.586,68.79c-3.685-3.685-8.584-5.714-13.795-5.714s-10.11,2.029-13.795,5.714l-13.263,13.263
			c-6.918,6.917-8.863,17.136-4.957,26.033c7.53,17.149,25.98,41.344,49.356,64.719c23.375,23.375,47.569,41.826,64.719,49.356
			c3.048,1.338,6.25,1.99,9.423,1.99c6.087,0,12.062-2.399,16.61-6.947l13.263-13.263c3.685-3.685,5.714-8.584,5.714-13.795
			S362.831,180.035,359.147,176.351z M348.541,193.334l-13.263,13.263c-2.514,2.514-6.201,3.233-9.396,1.83
			c-15.301-6.718-38.346-24.432-60.143-46.229c-21.797-21.796-39.51-44.842-46.229-60.143c-1.402-3.194-0.685-6.883,1.829-9.396
			l13.263-13.263c0.852-0.852,1.984-1.321,3.188-1.321c1.204,0,2.337,0.469,3.188,1.321l22.645,22.645
			c0.852,0.852,1.32,1.984,1.32,3.188c0,1.205-0.469,2.337-1.32,3.188l-7.519,7.519c-2.748,2.748-2.941,7.139-0.446,10.119
			c6.792,8.111,14.234,16.221,22.118,24.105c7.881,7.881,15.991,15.323,24.105,22.118c2.979,2.495,7.372,2.301,10.119-0.447
			l7.519-7.519c1.758-1.758,4.619-1.758,6.377,0l22.645,22.645c0.852,0.851,1.321,1.983,1.321,3.188
			C349.862,191.35,349.393,192.482,348.541,193.334z"/>
	</g>
</g>
<g>
	<g>
		<path d="M155.611,288.844c-12.965,0-23.512,10.547-23.512,23.512c0,12.964,10.547,23.512,23.512,23.512
			c12.964,0,23.512-10.547,23.512-23.512C179.123,299.392,168.576,288.844,155.611,288.844z M155.611,320.868
			c-4.694,0-8.512-3.818-8.512-8.512c0-4.694,3.818-8.512,8.512-8.512c4.693,0,8.512,3.818,8.512,8.512
			C164.123,317.05,160.305,320.868,155.611,320.868z"/>
	</g>
</g>
<g>
	<g>
		<path d="M275.701,304.855h-72.054c-4.142,0-7.5,3.358-7.5,7.5c0,4.142,3.358,7.5,7.5,7.5h72.054c4.142,0,7.5-3.358,7.5-7.5
			C283.201,308.213,279.843,304.855,275.701,304.855z"/>
	</g>
</g>
<g>
	<g>
		<path d="M155.611,352.892c-12.965,0-23.512,10.547-23.512,23.512c0,12.965,10.547,23.512,23.512,23.512
			c12.964,0,23.512-10.547,23.512-23.512C179.123,363.439,168.576,352.892,155.611,352.892z M155.611,384.916
			c-4.694,0-8.512-3.818-8.512-8.512c0-4.694,3.818-8.512,8.512-8.512c4.693,0,8.512,3.818,8.512,8.512
			C164.123,381.098,160.305,384.916,155.611,384.916z"/>
	</g>
</g>
<g>
	<g>
		<path d="M275.701,368.904h-72.054c-4.142,0-7.5,3.358-7.5,7.5c0,4.142,3.358,7.5,7.5,7.5h72.054c4.142,0,7.5-3.358,7.5-7.5
			C283.201,372.262,279.843,368.904,275.701,368.904z"/>
	</g>
</g>
<g>
</g>
<g>
</g>
<g>
</g>
<g>
</g>
<g>
</g>
<g>
</g>
<g>
</g>
<g>
</g>
<g>
</g>
<g>
</g>
<g>
</g>
<g>
</g>
<g>
</g>
<g>
</g>
<g>
</g>
</svg>
