<?xml version="1.0"?>
<svg xmlns="http://www.w3.org/2000/svg" viewBox="0 0 74 74" width="512" height="512"><g id="Numbers"><text transform="translate(31.995 -142.544)" font-size="18" fill="red" font-family="ArialMT, Arial">5<tspan x="-5.005" y="124">15</tspan><tspan x="-5.005" y="248">25</tspan><tspan x="-5.005" y="372">35</tspan><tspan x="-5.005" y="496">45</tspan><tspan x="-5.005" y="620">55</tspan><tspan x="-5.005" y="744">65</tspan><tspan x="-5.005" y="868">75</tspan><tspan x="-5.005" y="992">85</tspan><tspan x="-5.005" y="1116">95</tspan><tspan x="-10.011" y="1240">105</tspan><tspan x="-9.343" y="1364" letter-spacing="-0.074em">1</tspan><tspan x="-0.668" y="1364">15</tspan><tspan x="-10.011" y="1488">125</tspan><tspan x="-10.011" y="1612">135</tspan><tspan x="-10.011" y="1736">145</tspan><tspan x="-10.011" y="1860">155</tspan><tspan x="-10.011" y="1984">165</tspan><tspan x="-10.011" y="2108">175</tspan><tspan x="-10.011" y="2232">185</tspan><tspan x="-10.011" y="2356">195</tspan><tspan x="-10.011" y="2480">205</tspan><tspan x="-10.011" y="2604">215</tspan><tspan x="-10.011" y="2728">225</tspan><tspan x="-10.011" y="2852">235</tspan><tspan x="-10.011" y="2976">245</tspan><tspan x="-10.011" y="3100">255</tspan><tspan x="-10.011" y="3224">265</tspan><tspan x="-10.011" y="3348">275</tspan><tspan x="-10.011" y="3472">285</tspan><tspan x="-10.011" y="3596">295</tspan></text></g><g id="Icons"><path d="M41,72H33a1,1,0,0,1-.98-.8l-1.382-6.928a27.267,27.267,0,0,1-8.418-3.492L16.346,64.7a1,1,0,0,1-1.263-.125l-5.66-5.66A1,1,0,0,1,9.3,57.654l3.925-5.874a27.267,27.267,0,0,1-3.492-8.418L2.8,41.98A1,1,0,0,1,2,41V33a1,1,0,0,1,.8-.98l6.928-1.382a27.267,27.267,0,0,1,3.492-8.418L9.3,16.346a1,1,0,0,1,.125-1.263l5.66-5.66A1,1,0,0,1,16.346,9.3l5.874,3.925a27.267,27.267,0,0,1,8.418-3.492L32.02,2.8A1,1,0,0,1,33,2h8a1,1,0,0,1,.98.8l1.382,6.928a27.267,27.267,0,0,1,8.418,3.492L57.654,9.3a1,1,0,0,1,1.263.125l5.66,5.66a1,1,0,0,1,.125,1.263L60.776,22.22a27.267,27.267,0,0,1,3.492,8.418L71.2,32.02A1,1,0,0,1,72,33v8a1,1,0,0,1-.8.98l-6.928,1.382a27.267,27.267,0,0,1-3.492,8.418L64.7,57.654a1,1,0,0,1-.125,1.263l-5.66,5.66a1,1,0,0,1-1.263.125L51.78,60.776a27.267,27.267,0,0,1-8.418,3.492L41.98,71.2A1,1,0,0,1,41,72Zm-7.18-2H40.18l1.35-6.766a1,1,0,0,1,.78-.784,25.309,25.309,0,0,0,8.929-3.7,1,1,0,0,1,1.107,0l5.737,3.834,4.5-4.5-3.834-5.737a1,1,0,0,1,0-1.107,25.309,25.309,0,0,0,3.7-8.929,1,1,0,0,1,.784-.78L70,40.18V33.82l-6.766-1.35a1,1,0,0,1-.784-.78,25.309,25.309,0,0,0-3.7-8.929,1,1,0,0,1,0-1.107l3.834-5.737-4.5-4.5-5.737,3.834a1,1,0,0,1-1.107,0,25.309,25.309,0,0,0-8.929-3.7,1,1,0,0,1-.78-.784L40.18,4H33.82l-1.35,6.766a1,1,0,0,1-.78.784,25.309,25.309,0,0,0-8.929,3.7,1,1,0,0,1-1.107,0l-5.737-3.834-4.5,4.5,3.834,5.737a1,1,0,0,1,0,1.107,25.309,25.309,0,0,0-3.7,8.929,1,1,0,0,1-.784.78L4,33.82V40.18l6.766,1.35a1,1,0,0,1,.784.78,25.309,25.309,0,0,0,3.7,8.929,1,1,0,0,1,0,1.107l-3.834,5.737,4.5,4.5,5.737-3.834a1,1,0,0,1,1.107,0,25.309,25.309,0,0,0,8.929,3.7,1,1,0,0,1,.78.784Z"/><path d="M49.9,50.55a1.03,1.03,0,0,1-.185-.017,1,1,0,0,1-.736-.593,13.006,13.006,0,0,0-23.958,0,1,1,0,0,1-1.638.307,19,19,0,1,1,27.233,0A1,1,0,0,1,49.9,50.55ZM37,40a14.98,14.98,0,0,1,13.148,7.773,17,17,0,1,0-26.3,0A14.98,14.98,0,0,1,37,40Z"/><path d="M37,56a18.852,18.852,0,0,1-13.617-5.753,1,1,0,0,1-.2-1.087,15.007,15.007,0,0,1,27.642,0,1,1,0,0,1-.2,1.087A18.852,18.852,0,0,1,37,56ZM25.3,49.329a16.992,16.992,0,0,0,23.4,0,13.006,13.006,0,0,0-23.4,0Z"/><path d="M37,38a7,7,0,1,1,7-7A7.008,7.008,0,0,1,37,38Zm0-12a5,5,0,1,0,5,5A5.006,5.006,0,0,0,37,26Z"/></g></svg>
