<svg id="Capa_1" enable-background="new 0 0 512 512" height="512" viewBox="0 0 512 512" width="512" xmlns="http://www.w3.org/2000/svg"><g><path d="m331.452 250.881c-26.974 0-47.266 24.823-41.834 51.298 3.989 19.441 21.231 34.108 41.834 34.108.007 0 .013-.001.019-.001 23.537-.011 42.683-19.162 42.683-42.702 0-23.546-19.156-42.703-42.702-42.703zm-10 22.328v40.75c-16.971-8.342-16.879-32.47 0-40.75zm20 40.75v-40.75c16.878 8.318 16.953 32.395 0 40.75z"/><path d="m415.097 322.558c15.977 0 28.974-12.998 28.974-28.974s-12.998-28.975-28.974-28.975h-6.665c-.632-1.677-1.32-3.334-2.062-4.969l4.715-4.714c11.297-11.297 11.297-29.679 0-40.977-11.298-11.297-29.679-11.297-40.976 0l-4.715 4.715c-1.634-.741-3.292-1.429-4.969-2.062v-6.664c0-12.464-7.911-23.113-18.974-27.194v-96.779-44.493c.001-22.868-18.603-41.472-41.471-41.472h-190.579c-22.868 0-41.472 18.604-41.472 41.472v429.057c0 22.868 18.604 41.472 41.472 41.472h190.579c22.868 0 41.472-18.604 41.472-41.472 0-7.295 0-58.181 0-66.105 11.064-4.081 18.974-14.731 18.974-27.194v-6.664c1.677-.632 3.335-1.32 4.969-2.062l4.715 4.715c11.297 11.296 29.679 11.296 40.977 0 11.296-11.297 11.296-29.679 0-40.976l-4.715-4.715c.742-1.634 1.43-3.291 2.062-4.969h6.663zm-112.62-112.619v6.665c-1.678.632-3.334 1.319-4.969 2.061-3.761-3.56-5.795-6.422-10.475-9.182-7.556-4.458-17.075-5.351-25.636-1.886-19.176 7.762-24.252 32.657-9.58 47.331l4.715 4.714c-.742 1.634-1.429 3.292-2.062 4.969h-6.664c-15.977 0-28.975 12.998-28.975 28.975 0 15.973 12.994 28.975 28.975 28.975h6.664c.344.913 1.304 3.301 2.062 4.968-2.095 2.728-13.201 9.773-13.201 25.203 0 12.98 8.263 20.125 8.486 20.488 10.481 10.483 27.306 11.336 38.778 1.985 2.441-2.094 1.392-1.251 2.198-1.986l4.714-4.714c1.634.742 3.291 1.429 4.969 2.061.028 6.861-1.247 20.042 11.458 29.724 2.224 1.694 4.767 3.118 7.517 4.136v11.611h-233.522v-320.072h233.522v86.778c-11.106 4.122-18.974 14.781-18.974 27.196zm-193.076-189.939h190.579c11.839 0 21.472 9.632 21.472 21.472v34.494h-233.523v-34.494c0-11.84 9.633-21.472 21.472-21.472zm190.579 472h-190.579c-11.839 0-21.472-9.632-21.472-21.472v-34.493h233.522v34.493c.001 11.84-9.632 21.472-21.471 21.472zm101.188-189.442c-4.514 0-8.468 3.024-9.651 7.38-1.376 5.069-3.406 9.962-6.034 14.545-2.246 3.917-1.588 8.853 1.604 12.045l9.855 9.855c3.499 3.5 3.499 9.193 0 12.692-3.5 3.5-9.192 3.499-12.691 0l-9.855-9.855c-3.193-3.192-8.128-3.849-12.045-1.604-4.583 2.627-9.477 4.658-14.546 6.035-4.356 1.183-7.379 5.137-7.379 9.65v13.928c0 4.948-4.026 8.974-8.974 8.974-4.949 0-8.975-4.026-8.975-8.974v-13.928c0-4.514-3.023-8.468-7.379-9.65-9.09-2.469-13.932-5.896-15.849-6.654-3.855-1.524-8.046-.473-10.743 2.224l-9.855 9.855c-3.747 3.748-9.939 3.445-13.303-.677-2.874-3.512-2.669-8.734.612-12.015l9.855-9.855c3.195-3.196 3.848-8.131 1.604-12.044-2.629-4.586-4.659-9.48-6.034-14.546-1.183-4.356-5.137-7.38-9.651-7.38h-13.928c-4.949 0-8.975-4.026-8.975-8.974 0-4.949 4.026-8.975 8.975-8.975 12.89-.228 14.719.568 17.928-.834 7.053-3.081 4.228-8.085 11.685-21.091 2.246-3.917 1.588-8.853-1.604-12.045-10.852-10.876-9.941-9.884-10.512-10.592-5.345-6.662.788-16.379 9.17-14.305 1.531.379 2.983 1.156 4.177 2.35 10.356 10.309 9.767 9.87 10.775 10.658 3.249 2.541 7.672 2.782 11.126.802 4.584-2.628 9.478-4.658 14.546-6.035 4.356-1.183 7.379-5.137 7.379-9.65v-13.928c0-4.948 4.026-8.974 8.975-8.974 4.948 0 8.974 4.026 8.974 8.974v13.928c0 4.514 3.023 8.468 7.379 9.65 5.069 1.376 9.963 3.407 14.546 6.035 3.917 2.246 8.853 1.587 12.045-1.604l9.855-9.855c3.499-3.499 9.191-3.499 12.691 0s3.5 9.192 0 12.691l-9.855 9.855c-3.192 3.193-3.85 8.129-1.604 12.046 2.627 4.583 4.658 9.476 6.034 14.544 1.183 4.356 5.137 7.38 9.651 7.38h13.928c4.948 0 8.974 4.026 8.974 8.975 0 4.948-4.026 8.974-8.974 8.974h-13.927z"/><path d="m307.895 142.452c0-16.133-13.125-29.258-29.259-29.258h-55.636c-5.523 0-10 4.477-10 10s4.477 10 10 10h55.636c5.105 0 9.259 4.153 9.259 9.258v20.222c0 5.105-4.153 9.259-9.259 9.259h-147.891c-5.105 0-9.258-4.153-9.258-9.259v-20.222c0-5.105 4.153-9.258 9.258-9.258h12.255c5.523 0 10-4.477 10-10s-4.477-10-10-10h-12.255c-16.133 0-29.258 13.125-29.258 29.258v20.222c0 16.133 13.125 29.259 29.258 29.259h147.891c16.133 0 29.259-13.125 29.259-29.259z"/><path d="m192.847 203.954h-65.902c-14.038 0-25.458 11.42-25.458 25.458v41.692c0 14.038 11.42 25.458 25.458 25.458h65.902c14.038 0 25.458-11.42 25.458-25.458v-41.692c.001-14.038-11.42-25.458-25.458-25.458zm5.459 67.15c0 3.01-2.449 5.458-5.458 5.458h-65.902c-3.01 0-5.458-2.448-5.458-5.458v-41.692c0-3.01 2.449-5.458 5.458-5.458h65.902c3.01 0 5.458 2.449 5.458 5.458z"/><path d="m192.847 308.584h-65.902c-14.038 0-25.458 11.42-25.458 25.458v41.691c0 14.038 11.42 25.458 25.458 25.458h65.902c14.038 0 25.458-11.42 25.458-25.458v-41.691c.001-14.038-11.42-25.458-25.458-25.458zm5.459 67.15c0 3.01-2.449 5.458-5.458 5.458h-65.902c-3.01 0-5.458-2.449-5.458-5.458v-41.691c0-3.01 2.449-5.458 5.458-5.458h65.902c3.01 0 5.458 2.449 5.458 5.458z"/><path d="m183.025 133.193c5.523 0 10-4.477 10-10s-4.477-10-10-10h-.025c-5.523 0-9.988 4.477-9.988 10s4.49 10 10.013 10z"/><path d="m215.337 452.903h-21.294c-5.523 0-10 4.477-10 10s4.477 10 10 10h21.294c5.523 0 10-4.477 10-10s-4.477-10-10-10z"/></g></svg>