<?xml version="1.0" encoding="iso-8859-1"?>
<!-- Generator: Adobe Illustrator 19.0.0, SVG Export Plug-In . SVG Version: 6.00 Build 0)  -->
<svg version="1.1" id="Capa_1" xmlns="http://www.w3.org/2000/svg" xmlns:xlink="http://www.w3.org/1999/xlink" x="0px" y="0px"
	 viewBox="0 0 509.287 509.287" style="enable-background:new 0 0 509.287 509.287;" xml:space="preserve">
<circle style="fill:#EE4A68;" cx="254.644" cy="254.644" r="254.644"/>
<path style="fill:#646B79;" d="M296.011,40.689H77.648c-9.155,0-16.615,7.46-16.615,16.615v394.681
	c0,9.155,7.46,16.615,16.615,16.615h218.363c9.155,0,16.615-7.46,16.615-16.615V57.303
	C312.625,48.148,305.166,40.689,296.011,40.689z"/>
<rect x="68.832" y="74.935" style="fill:#6EB1E1;" width="235.656" height="342.125"/>
<g>
	<path style="fill:#414753;" d="M204.8,53.913h-35.942c-2.374,0-4.408,2.034-4.408,4.408c0,2.374,2.034,4.408,4.408,4.408H204.8
		c2.374,0,4.408-2.034,4.408-4.408C209.208,55.947,207.174,53.913,204.8,53.913z"/>
	<circle style="fill:#414753;" cx="186.829" cy="442.829" r="15.258"/>
</g>
<circle style="fill:#FBD303;" cx="353.653" cy="232.943" r="144.445"/>
<circle style="fill:#F5EA0A;" cx="353.653" cy="232.943" r="119.354"/>
<circle style="fill:#FBD303;" cx="353.653" cy="232.943" r="93.245"/>
<path style="fill:#F5EA0A;" d="M387.56,255.322c0-17.293-15.258-31.534-33.907-31.534c-8.138,0-14.58-6.103-14.58-13.563
	c0-7.46,6.442-13.563,14.58-13.563c4.069,0,7.799,1.356,10.511,4.408c3.73,3.73,9.833,3.73,13.563,0.339s4.069-9.155,0.339-12.546
	c-4.069-4.069-9.494-7.121-14.919-8.477v-6.103c0-5.086-4.408-9.155-9.833-9.155s-9.833,4.069-9.833,9.155v6.103
	c-13.902,3.73-24.074,15.936-24.074,30.177c0,17.293,15.258,31.534,33.907,31.534c8.138,0,14.58,6.103,14.58,13.563
	c0,7.46-6.442,13.563-14.58,13.563c-4.069,0-7.799-1.356-10.511-4.408c-3.73-3.73-9.833-3.73-13.563-0.339
	c-3.73,3.391-4.069,9.155-0.339,12.546c4.069,4.069,9.494,7.121,14.919,8.477v6.103c0,5.086,4.408,9.155,9.833,9.155
	c5.425,0,9.833-4.069,9.833-9.155v-6.103C377.388,281.77,387.56,269.563,387.56,255.322z"/>
<g>
</g>
<g>
</g>
<g>
</g>
<g>
</g>
<g>
</g>
<g>
</g>
<g>
</g>
<g>
</g>
<g>
</g>
<g>
</g>
<g>
</g>
<g>
</g>
<g>
</g>
<g>
</g>
<g>
</g>
</svg>
