<svg enable-background="new 0 0 24 24" height="512" viewBox="0 0 24 24" width="512" xmlns="http://www.w3.org/2000/svg"><path d="m17.5 24c-3.584 0-6.5-2.916-6.5-6.5s2.916-6.5 6.5-6.5 6.5 2.916 6.5 6.5-2.916 6.5-6.5 6.5zm0-12c-3.033 0-5.5 2.468-5.5 5.5s2.467 5.5 5.5 5.5 5.5-2.468 5.5-5.5-2.467-5.5-5.5-5.5z"/><path d="m16.5 20c-.132 0-.26-.053-.354-.146l-2-2c-.195-.195-.195-.512 0-.707s.512-.195.707 0l1.622 1.622 3.148-3.598c.182-.209.498-.229.706-.047s.229.497.047.705l-3.5 4c-.091.104-.222.166-.36.171-.005 0-.011 0-.016 0z"/><path d="m9.5 18h-8.26c-.684 0-1.24-.557-1.24-1.24v-9.96c0-.404.199-.785.533-1.02l8.181-5.69c.172-.119.399-.119.571 0l8.18 5.69c.336.235.535.616.535 1.02v2.7c0 .276-.224.5-.5.5s-.5-.224-.5-.5v-2.7c0-.077-.041-.153-.106-.199l-7.894-5.492-7.895 5.492c-.064.045-.105.122-.105.199v9.96c0 .135.105.24.24.24h8.26c.276 0 .5.224.5.5s-.224.5-.5.5z"/><path d="m9.5 18h-5c-.276 0-.5-.224-.5-.5v-9c0-.276.224-.5.5-.5h9c.276 0 .5.224.5.5v2c0 .276-.224.5-.5.5s-.5-.224-.5-.5v-1.5h-8v8h4.5c.276 0 .5.224.5.5s-.224.5-.5.5z"/><path d="m11.5 12h-7c-.276 0-.5-.224-.5-.5s.224-.5.5-.5h7c.276 0 .5.224.5.5s-.224.5-.5.5z"/><path d="m9.5 15h-5c-.276 0-.5-.224-.5-.5s.224-.5.5-.5h5c.276 0 .5.224.5.5s-.224.5-.5.5z"/></svg>