<?xml version="1.0" encoding="iso-8859-1"?>
<!-- Generator: Adobe Illustrator 19.0.0, SVG Export Plug-In . SVG Version: 6.00 Build 0)  -->
<svg version="1.1" id="Capa_1" xmlns="http://www.w3.org/2000/svg" xmlns:xlink="http://www.w3.org/1999/xlink" x="0px" y="0px"
	 viewBox="0 0 436.601 436.601" style="enable-background:new 0 0 436.601 436.601;" xml:space="preserve">
<g>
	<g>
		<g>
			<path d="M329.678,345.481c-2.209,0-4,1.791-4,4v50.861c0,15.581-12.677,28.258-28.259,28.258H38.325
				c-15.582,0-28.258-12.677-28.258-28.258V36.258C10.067,20.676,22.743,8,38.325,8h203.762v47.327
				c0,19.993,16.266,36.258,36.258,36.258h47.334V198.58c0,2.209,1.791,4,4,4c2.209,0,4-1.791,4-4v-111
				c0-0.029-0.008-0.057-0.009-0.086c-0.005-0.232-0.024-0.464-0.069-0.691c-0.012-0.059-0.033-0.114-0.048-0.172
				c-0.041-0.166-0.09-0.33-0.151-0.49c-0.036-0.091-0.076-0.178-0.117-0.266c-0.059-0.123-0.125-0.243-0.196-0.36
				c-0.05-0.083-0.099-0.167-0.155-0.247c-0.092-0.129-0.196-0.251-0.305-0.371c-0.053-0.057-0.099-0.119-0.154-0.173L248.916,1.166
				c-0.174-0.174-0.364-0.323-0.563-0.459c-0.031-0.021-0.064-0.04-0.097-0.061c-0.174-0.112-0.354-0.21-0.541-0.293
				c-0.042-0.019-0.084-0.039-0.127-0.056c-0.466-0.188-0.96-0.288-1.462-0.293c-0.014,0-0.025-0.004-0.039-0.004H38.325
				C18.332,0,2.067,16.265,2.067,36.258v364.085c0,19.992,16.265,36.258,36.258,36.258H297.42c19.993,0,36.259-16.266,36.259-36.258
				v-50.861C333.678,347.272,331.887,345.481,329.678,345.481z M250.086,13.652l69.934,69.933h-41.676
				c-15.581,0-28.258-12.676-28.258-28.258V13.652z"/>
			<path d="M56.925,264.464c0,2.209,1.791,4,4,4h37.03c2.209,0,4-1.791,4-4v-55.792c0-2.209-1.791-4-4-4h-37.03
				c-2.209,0-4,1.791-4,4V264.464z M64.925,212.672h29.03v47.792h-29.03V212.672z"/>
			<path d="M157.627,158.175h-37.03c-2.209,0-4,1.791-4,4v102.279c0,0.003-0.001,0.007-0.001,0.01c0,2.209,1.791,4,4,4h37.032
				c2.209,0,4-1.791,4-4c0-0.003-0.001-0.007-0.001-0.01V162.175C161.627,159.966,159.836,158.175,157.627,158.175z
				 M153.627,260.464h-29.03v-94.289h29.03V260.464z"/>
			<path d="M217.297,174.473h-37.029c-2.209,0-4,1.791-4,4v85.991c0,2.209,1.791,4,4,4h37.031c2.209,0,4-1.791,4-4
				c0-0.007-0.002-0.013-0.002-0.02v-85.972C221.297,176.264,219.506,174.473,217.297,174.473z M213.297,260.464h-29.029v-77.991
				h29.029V260.464z"/>
			<path d="M280.971,115.753c0-2.209-1.791-4-4-4h-37.033c-2.209,0-4,1.791-4,4v148.711c0,2.209,1.791,4,4,4h0.001h0.001h37.031
				c2.209,0,4-1.791,4-4V115.753z M272.971,260.464h-29.033V119.753h29.033V260.464z"/>
			<path d="M280.971,291.696c0-2.209-1.791-4-4-4H60.925c-2.209,0-4,1.791-4,4c0,2.209,1.791,4,4,4h216.046
				C279.18,295.696,280.971,293.905,280.971,291.696z"/>
			<path d="M225.215,321.616c0-2.209-1.791-4-4-4H60.925c-2.209,0-4,1.791-4,4c0,2.209,1.791,4,4,4h160.29
				C223.424,325.616,225.215,323.825,225.215,321.616z"/>
			<path d="M142.004,347.537H60.925c-2.209,0-4,1.791-4,4c0,2.209,1.791,4,4,4h81.079c2.209,0,4-1.791,4-4
				C146.004,349.328,144.213,347.537,142.004,347.537z"/>
			<path d="M142.004,377.457H60.925c-2.209,0-4,1.791-4,4c0,2.209,1.791,4,4,4h81.079c2.209,0,4-1.791,4-4
				C146.004,379.248,144.213,377.457,142.004,377.457z"/>
			<path d="M60.925,62.694h78.187c2.209,0,4-1.791,4-4c0-2.209-1.791-4-4-4H60.925c-2.209,0-4,1.791-4,4
				C56.925,60.903,58.716,62.694,60.925,62.694z"/>
			<path d="M60.925,89.294h106.947c2.209,0,4-1.791,4-4s-1.791-4-4-4H60.925c-2.209,0-4,1.791-4,4S58.716,89.294,60.925,89.294z"/>
			<path d="M432.124,79.601l-30.18-13.083c-2.027-0.879-4.382,0.052-5.261,2.079l-6.173,14.237c-4.374,0.38-8.226,3.118-9.994,7.199
				c-1.813,4.185-1.052,8.851,1.581,12.216L271.254,357.92c-0.019,0.043-0.025,0.09-0.043,0.134
				c-0.051,0.128-0.089,0.26-0.127,0.394c-0.033,0.122-0.065,0.242-0.087,0.366c-0.022,0.126-0.034,0.254-0.044,0.384
				c-0.012,0.14-0.019,0.277-0.015,0.417c0.001,0.054-0.01,0.104-0.006,0.158l2.354,35.928c0.001,0.019,0.007,0.035,0.009,0.054
				c0.011,0.136,0.041,0.269,0.066,0.403c0.021,0.121,0.036,0.245,0.069,0.361c0.03,0.109,0.078,0.214,0.118,0.32
				c0.051,0.136,0.098,0.272,0.163,0.4c0.046,0.091,0.105,0.176,0.159,0.265c0.082,0.135,0.164,0.269,0.261,0.392
				c0.021,0.026,0.032,0.056,0.054,0.081c0.041,0.05,0.093,0.084,0.136,0.132c0.126,0.14,0.259,0.271,0.403,0.392
				c0.081,0.067,0.163,0.131,0.248,0.191c0.143,0.102,0.293,0.189,0.449,0.271c0.088,0.047,0.172,0.097,0.263,0.136
				c0.181,0.078,0.369,0.137,0.561,0.188c0.071,0.019,0.14,0.047,0.212,0.063c0.265,0.056,0.537,0.089,0.816,0.089
				c0.002,0,0.003,0,0.005,0h0.001c0.001,0,0.003,0,0.004,0c0.085-0.001,0.17-0.003,0.256-0.009
				c0.054-0.004,0.103-0.021,0.155-0.026c0.164-0.017,0.325-0.044,0.487-0.081c0.091-0.021,0.181-0.043,0.27-0.069
				c0.147-0.046,0.29-0.104,0.434-0.167c0.087-0.038,0.175-0.072,0.259-0.117c0.133-0.069,0.258-0.155,0.384-0.242
				c0.08-0.055,0.164-0.103,0.239-0.163c0.016-0.012,0.033-0.021,0.049-0.033l27.83-22.844c0.012-0.009,0.019-0.021,0.03-0.03
				c0.184-0.154,0.354-0.324,0.509-0.512c0.038-0.046,0.069-0.095,0.104-0.143c0.105-0.139,0.203-0.285,0.291-0.44
				c0.041-0.074,0.08-0.147,0.117-0.223c0.025-0.053,0.057-0.1,0.08-0.153l110.839-255.673c4.374-0.381,8.226-3.118,9.995-7.198
				c1.813-4.186,1.052-8.85-1.579-12.213l6.171-14.239C435.082,82.835,434.152,80.48,432.124,79.601z M388.86,106.765l7.748,3.358
				L287.937,360.792l-7.752-3.36L388.86,106.765z M280.76,387.405l-1.416-21.619l18.162,7.873L280.76,387.405z M303.029,367.334
				l-7.752-3.36l108.671-250.669l7.751,3.359L303.029,367.334z M422.271,108.133c-0.64,1.476-2.094,2.43-3.704,2.43
				c-0.549,0-1.087-0.113-1.599-0.334l-27.014-11.708c-2.04-0.887-2.981-3.267-2.098-5.305c0.641-1.477,2.093-2.431,3.7-2.431
				c0.228,0,0.452,0.031,0.676,0.07c0.058,0.013,0.116,0.016,0.174,0.026c0.255,0.056,0.506,0.133,0.751,0.24l27.019,11.712
				c0.25,0.108,0.483,0.241,0.699,0.391c0.038,0.028,0.069,0.063,0.108,0.089C422.441,104.406,423.026,106.39,422.271,108.133z
				 M421.27,94.587l-22.842-9.901l4.005-9.236l22.84,9.901L421.27,94.587z"/>
		</g>
	</g>
</g>
<g>
</g>
<g>
</g>
<g>
</g>
<g>
</g>
<g>
</g>
<g>
</g>
<g>
</g>
<g>
</g>
<g>
</g>
<g>
</g>
<g>
</g>
<g>
</g>
<g>
</g>
<g>
</g>
<g>
</g>
</svg>
