<?xml version="1.0"?>
<svg xmlns="http://www.w3.org/2000/svg" xmlns:xlink="http://www.w3.org/1999/xlink" xmlns:svgjs="http://svgjs.com/svgjs" version="1.1" width="512" height="512" x="0" y="0" viewBox="0 0 512 512" style="enable-background:new 0 0 512 512" xml:space="preserve" class=""><g>
<path xmlns="http://www.w3.org/2000/svg" style="" d="M504.026,192.374C475.737,81.771,375.42,0,256,0C114.616,0,0,114.616,0,256  c0,119.42,81.771,219.737,192.374,248.026L504.026,192.374z" fill="#046c82" data-original="#0e7563" class=""/>
<path xmlns="http://www.w3.org/2000/svg" style="" d="M512,256c0-21.965-2.77-43.283-7.974-63.626l-69.939-69.939L77.913,389.565l114.461,114.461  C212.717,509.23,234.035,512,256,512C397.384,512,512,397.384,512,256z" fill="#023f4c" data-original="#1a534a" class=""/>
<polygon xmlns="http://www.w3.org/2000/svg" style="" points="256,389.565 434.087,389.565 434.087,367.304 233.739,345.043 " fill="#7ddcd4" data-original="#7ddcd4" class=""/>
<polygon xmlns="http://www.w3.org/2000/svg" style="" points="77.913,367.304 77.913,389.565 256,389.565 256,345.043 " fill="#b1eae5" data-original="#b1eae5" class=""/>
<polygon xmlns="http://www.w3.org/2000/svg" style="" points="256,367.304 434.087,367.304 434.087,345.043 233.739,322.783 " fill="#40d2be" data-original="#40d2be" class=""/>
<g xmlns="http://www.w3.org/2000/svg">
	<polygon style="" points="77.913,345.043 77.913,367.304 256,367.304 256,322.783  " fill="#7ddcd4" data-original="#7ddcd4" class=""/>
	<polygon style="" points="256,345.043 434.087,345.043 434.087,322.783 233.739,300.522  " fill="#7ddcd4" data-original="#7ddcd4" class=""/>
</g>
<polygon xmlns="http://www.w3.org/2000/svg" style="" points="77.913,322.783 77.913,345.043 256,345.043 256,300.522 " fill="#b1eae5" data-original="#b1eae5" class=""/>
<polygon xmlns="http://www.w3.org/2000/svg" style="" points="256,122.435 233.739,222.609 256,322.783 434.087,322.783 434.087,122.435 " fill="#02c8a7" data-original="#02c8a7" class=""/>
<rect xmlns="http://www.w3.org/2000/svg" x="77.913" y="122.435" style="" width="178.087" height="200.348" fill="#40d2be" data-original="#40d2be" class=""/>
<path xmlns="http://www.w3.org/2000/svg" style="" d="M378.435,144.696H256l-22.261,77.913L256,300.522h122.435c0-18.441,14.949-33.391,33.391-33.391  v-89.043C393.385,178.087,378.435,163.138,378.435,144.696z" fill="#7ddcd4" data-original="#7ddcd4" class=""/>
<path xmlns="http://www.w3.org/2000/svg" style="" d="M133.565,144.696c0,18.441-14.949,33.391-33.391,33.391v89.043c18.442,0,33.391,14.95,33.391,33.391  H256V144.696H133.565z" fill="#b1eae5" data-original="#b1eae5" class=""/>
<path xmlns="http://www.w3.org/2000/svg" style="" d="M256,155.826c49.178,0,89.043,29.9,89.043,66.783S305.178,289.391,256,289.391V155.826z" fill="#02c8a7" data-original="#02c8a7" class=""/>
<path xmlns="http://www.w3.org/2000/svg" style="" d="M166.957,222.609c0,36.883,39.866,66.783,89.043,66.783V155.826  C206.822,155.826,166.957,185.726,166.957,222.609z" fill="#40d2be" data-original="#40d2be" class=""/>
<polygon xmlns="http://www.w3.org/2000/svg" style="" points="233.739,322.783 256,400.696 322.783,400.696 322.783,322.783 " fill="#fde59a" data-original="#fde59a" class=""/>
<g xmlns="http://www.w3.org/2000/svg">
	<polygon style="" points="322.783,111.304 256,111.304 233.739,322.783 322.783,322.783  " fill="#fef2cc" data-original="#fef2cc" class=""/>
	<rect x="189.217" y="322.783" style="" width="66.783" height="77.913" fill="#fef2cc" data-original="#fef2cc" class=""/>
</g>
<rect xmlns="http://www.w3.org/2000/svg" x="189.217" y="111.304" style="" width="66.783" height="211.478" fill="#ffffff" data-original="#ffffff"/>
<g xmlns="http://www.w3.org/2000/svg">
</g>
<g xmlns="http://www.w3.org/2000/svg">
</g>
<g xmlns="http://www.w3.org/2000/svg">
</g>
<g xmlns="http://www.w3.org/2000/svg">
</g>
<g xmlns="http://www.w3.org/2000/svg">
</g>
<g xmlns="http://www.w3.org/2000/svg">
</g>
<g xmlns="http://www.w3.org/2000/svg">
</g>
<g xmlns="http://www.w3.org/2000/svg">
</g>
<g xmlns="http://www.w3.org/2000/svg">
</g>
<g xmlns="http://www.w3.org/2000/svg">
</g>
<g xmlns="http://www.w3.org/2000/svg">
</g>
<g xmlns="http://www.w3.org/2000/svg">
</g>
<g xmlns="http://www.w3.org/2000/svg">
</g>
<g xmlns="http://www.w3.org/2000/svg">
</g>
<g xmlns="http://www.w3.org/2000/svg">
</g>
</g></svg>
