<svg enable-background="new 0 0 24 24" height="512" viewBox="0 0 24 24" width="512" xmlns="http://www.w3.org/2000/svg"><g id="line" display="none"><path d="m14.5 18.5h4.5" display="inline" fill="none" stroke="#000" stroke-linejoin="round" stroke-miterlimit="10"/><path d="m17.5 5.5h4.5" display="inline" fill="none" stroke="#000" stroke-linejoin="round" stroke-miterlimit="10"/><path d="m16 .5h-13.5c-1.1 0-2 .9-2 2v19c0 1.1.9 2 2 2h10c1.1 0 2-.9 2-2v-19.5c0-.8.7-1.5 1.5-1.5s1.5.7 1.5 1.5v15c0 .8.7 1.5 1.5 1.5s1.5-.7 1.5-1.5v-10c0-.8.7-1.5 1.5-1.5s1.5.7 1.5 1.5v8.5c0 .6-.4 1-1 1h-2" style="display:inline;fill:none;stroke:#000;stroke-linecap:round;stroke-linejoin:round;stroke-miterlimit:10"/><path d="m2.5 18.5v2c0 .6.4 1 1 1" style="display:inline;fill:none;stroke:#000;stroke-linecap:round;stroke-linejoin:round;stroke-miterlimit:10"/><circle cx="5.5" cy="21.5" display="inline" r=".5"/><g fill="none" stroke="#000" stroke-linejoin="round" stroke-miterlimit="10"><path d="m3.5 3.5h2v2h-2z" display="inline"/><path d="m3.5 8.5h2v2h-2z" display="inline"/><path d="m3.5 13.5h2v2h-2z" display="inline"/><path d="m7.5 4.5h4" display="inline" stroke-linecap="round"/><path d="m7.5 9.5h4" display="inline" stroke-linecap="round"/><path d="m7.5 14.5h4" display="inline" stroke-linecap="round"/></g></g><g id="line_expanded"><g><path d="m22 5h-4v-3c0-1.1-.9-2-2-2h-13.5c-1.4 0-2.5 1.1-2.5 2.5v19c0 1.4 1.1 2.5 2.5 2.5h10c1.4 0 2.5-1.1 2.5-2.5v-2.5h4c1.1 0 2-.9 2-2h1.5c.8 0 1.5-.7 1.5-1.5v-8.5c0-1.1-.9-2-2-2zm-8-3v19.5c0 .8-.7 1.5-1.5 1.5h-10c-.8 0-1.5-.7-1.5-1.5v-19c0-.8.7-1.5 1.5-1.5h11.8c-.2.3-.3.6-.3 1zm1 0c0-.6.4-1 1-1s1 .4 1 1v15c0 .4.1.7.3 1h-2.3zm5 15c0 .6-.4 1-1 1s-1-.4-1-1v-11h2.3c-.2.3-.3.6-.3 1zm3-1.5c0 .3-.2.5-.5.5h-1.5v-9c0-.6.4-1 1-1s1 .4 1 1z"/><path d="m2 18.5v2c0 .8.7 1.5 1.5 1.5.3 0 .5-.2.5-.5s-.2-.5-.5-.5-.5-.2-.5-.5v-2c0-.3-.2-.5-.5-.5s-.5.2-.5.5z"/><circle cx="5.5" cy="21.5" r=".5"/><path d="m3.5 6h2c.3 0 .5-.2.5-.5v-2c0-.3-.2-.5-.5-.5h-2c-.3 0-.5.2-.5.5v2c0 .3.2.5.5.5zm.5-2h1v1h-1z"/><path d="m3.5 11h2c.3 0 .5-.2.5-.5v-2c0-.3-.2-.5-.5-.5h-2c-.3 0-.5.2-.5.5v2c0 .3.2.5.5.5zm.5-2h1v1h-1z"/><path d="m3.5 16h2c.3 0 .5-.2.5-.5v-2c0-.3-.2-.5-.5-.5h-2c-.3 0-.5.2-.5.5v2c0 .3.2.5.5.5zm.5-2h1v1h-1z"/><path d="m7.5 5h4c.3 0 .5-.2.5-.5s-.2-.5-.5-.5h-4c-.3 0-.5.2-.5.5s.2.5.5.5z"/><path d="m7.5 10h4c.3 0 .5-.2.5-.5s-.2-.5-.5-.5h-4c-.3 0-.5.2-.5.5s.2.5.5.5z"/><path d="m7.5 15h4c.3 0 .5-.2.5-.5s-.2-.5-.5-.5h-4c-.3 0-.5.2-.5.5s.2.5.5.5z"/></g></g><g id="colored_line" display="none"><path d="m22 5h-4v-3c0-1.1-.9-2-2-2h-13.5c-1.4 0-2.5 1.1-2.5 2.5v19c0 1.4 1.1 2.5 2.5 2.5h10c1.4 0 2.5-1.1 2.5-2.5v-2.5h4c1.1 0 2-.9 2-2h1.5c.8 0 1.5-.7 1.5-1.5v-8.5c0-1.1-.9-2-2-2zm-8-3v19.5c0 .8-.7 1.5-1.5 1.5h-10c-.8 0-1.5-.7-1.5-1.5v-19c0-.8.7-1.5 1.5-1.5h11.8c-.2.3-.3.6-.3 1zm1 0c0-.6.4-1 1-1s1 .4 1 1v15c0 .4.1.7.3 1h-2.3zm5 15c0 .6-.4 1-1 1s-1-.4-1-1v-11h2.3c-.2.3-.3.6-.3 1zm3-1.5c0 .3-.2.5-.5.5h-1.5v-9c0-.6.4-1 1-1s1 .4 1 1z" display="inline" fill="#1689fc"/><g fill="#3e5959"><path d="m2 18.5v2c0 .8.7 1.5 1.5 1.5.3 0 .5-.2.5-.5s-.2-.5-.5-.5-.5-.2-.5-.5v-2c0-.3-.2-.5-.5-.5s-.5.2-.5.5z" display="inline"/><circle cx="5.5" cy="21.5" display="inline" r=".5"/><path d="m3.5 6h2c.3 0 .5-.2.5-.5v-2c0-.3-.2-.5-.5-.5h-2c-.3 0-.5.2-.5.5v2c0 .3.2.5.5.5zm.5-2h1v1h-1z" display="inline"/><path d="m3.5 11h2c.3 0 .5-.2.5-.5v-2c0-.3-.2-.5-.5-.5h-2c-.3 0-.5.2-.5.5v2c0 .3.2.5.5.5zm.5-2h1v1h-1z" display="inline"/><path d="m3.5 16h2c.3 0 .5-.2.5-.5v-2c0-.3-.2-.5-.5-.5h-2c-.3 0-.5.2-.5.5v2c0 .3.2.5.5.5zm.5-2h1v1h-1z" display="inline"/><path d="m7.5 5h4c.3 0 .5-.2.5-.5s-.2-.5-.5-.5h-4c-.3 0-.5.2-.5.5s.2.5.5.5z" display="inline"/><path d="m7.5 10h4c.3 0 .5-.2.5-.5s-.2-.5-.5-.5h-4c-.3 0-.5.2-.5.5s.2.5.5.5z" display="inline"/><path d="m7.5 15h4c.3 0 .5-.2.5-.5s-.2-.5-.5-.5h-4c-.3 0-.5.2-.5.5s.2.5.5.5z" display="inline"/></g></g><g id="filled_line" display="none"><g display="inline"><path d="m12.5 23.5h-10c-1.1 0-2-.9-2-2v-19c0-1.1.9-2 2-2h13.5c-.8 0-1.5.7-1.5 1.5v19.5c0 1.1-.9 2-2 2z" fill="#b7e0f6"/><path d="m17.5 18.5h-3v-16.5c0-.8.7-1.5 1.5-1.5.8 0 1.5.7 1.5 1.5z" fill="#1689fc"/><path d="m19 18.5c-.8 0-1.5-.7-1.5-1.5v-11.5h3v11.5c0 .8-.7 1.5-1.5 1.5z" fill="#1e7af4"/><path d="m22.5 16.5h-2v-9.5c0-.8.7-1.5 1.5-1.5.8 0 1.5.7 1.5 1.5v8.5c0 .6-.4 1-1 1z" fill="#3b89ff"/><path d="m12.5 23.5h-1.5c1.1 0 2-.9 2-2v-19.5c0-.8.7-1.5 1.5-1.5h1.5c-.8 0-1.5.7-1.5 1.5v19.5c0 1.1-.9 2-2 2z" fill="#81c8ee"/><g fill="#32d736"><path d="m3.5 8.5h2v2h-2z"/><path d="m3.5 13.5h2v2h-2z"/><path d="m3.5 3.5h2v2h-2z"/></g><g><path d="m22 5h-4v-3c0-1.1-.9-2-2-2h-13.5c-1.4 0-2.5 1.1-2.5 2.5v19c0 1.4 1.1 2.5 2.5 2.5h10c1.4 0 2.5-1.1 2.5-2.5v-2.5h4c1.1 0 2-.9 2-2h1.5c.8 0 1.5-.7 1.5-1.5v-8.5c0-1.1-.9-2-2-2zm-8-3v19.5c0 .8-.7 1.5-1.5 1.5h-10c-.8 0-1.5-.7-1.5-1.5v-19c0-.8.7-1.5 1.5-1.5h11.8c-.2.3-.3.6-.3 1zm1 0c0-.6.4-1 1-1s1 .4 1 1v15c0 .4.1.7.3 1h-2.3zm5 15c0 .6-.4 1-1 1s-1-.4-1-1v-11h2.3c-.2.3-.3.6-.3 1zm3-1.5c0 .3-.2.5-.5.5h-1.5v-9c0-.6.4-1 1-1s1 .4 1 1z" fill="#384949"/><path d="m2 18.5v2c0 .8.7 1.5 1.5 1.5.3 0 .5-.2.5-.5s-.2-.5-.5-.5-.5-.2-.5-.5v-2c0-.3-.2-.5-.5-.5s-.5.2-.5.5z" fill="#cae8f9"/><circle cx="5.5" cy="21.5" fill="#cae8f9" r=".5"/><g fill="#384949"><path d="m3.5 6h2c.3 0 .5-.2.5-.5v-2c0-.3-.2-.5-.5-.5h-2c-.3 0-.5.2-.5.5v2c0 .3.2.5.5.5zm.5-2h1v1h-1z"/><path d="m3.5 11h2c.3 0 .5-.2.5-.5v-2c0-.3-.2-.5-.5-.5h-2c-.3 0-.5.2-.5.5v2c0 .3.2.5.5.5zm.5-2h1v1h-1z"/><path d="m3.5 16h2c.3 0 .5-.2.5-.5v-2c0-.3-.2-.5-.5-.5h-2c-.3 0-.5.2-.5.5v2c0 .3.2.5.5.5zm.5-2h1v1h-1z"/></g><path d="m7.5 5h4c.3 0 .5-.2.5-.5s-.2-.5-.5-.5h-4c-.3 0-.5.2-.5.5s.2.5.5.5z" fill="#1689fc"/><path d="m7.5 10h4c.3 0 .5-.2.5-.5s-.2-.5-.5-.5h-4c-.3 0-.5.2-.5.5s.2.5.5.5z" fill="#1689fc"/><path d="m7.5 15h4c.3 0 .5-.2.5-.5s-.2-.5-.5-.5h-4c-.3 0-.5.2-.5.5s.2.5.5.5z" fill="#1689fc"/></g></g></g><g id="duo_tone_1_" display="none"><g fill="#00ecce"><path d="m3.5 13.5h2v2h-2z" display="inline"/><path d="m3.5 8.5h2v2h-2z" display="inline"/><path d="m3.5 3.5h2v2h-2z" display="inline"/><path d="m19 18.5c-.8 0-1.5-.7-1.5-1.5v-11.5h3v11.5c0 .8-.7 1.5-1.5 1.5z" display="inline"/></g><g display="inline" fill="#01a28e"><path d="m22 5h-4v-3c0-1.1-.9-2-2-2h-13.5c-1.4 0-2.5 1.1-2.5 2.5v19c0 1.4 1.1 2.5 2.5 2.5h10c1.4 0 2.5-1.1 2.5-2.5v-2.5h4c1.1 0 2-.9 2-2h1.5c.8 0 1.5-.7 1.5-1.5v-8.5c0-1.1-.9-2-2-2zm-8-3v19.5c0 .8-.7 1.5-1.5 1.5h-10c-.8 0-1.5-.7-1.5-1.5v-19c0-.8.7-1.5 1.5-1.5h11.8c-.2.3-.3.6-.3 1zm1 0c0-.6.4-1 1-1s1 .4 1 1v15c0 .4.1.7.3 1h-2.3zm5 15c0 .6-.4 1-1 1s-1-.4-1-1v-11h2.3c-.2.3-.3.6-.3 1zm3-1.5c0 .3-.2.5-.5.5h-1.5v-9c0-.6.4-1 1-1s1 .4 1 1z"/><path d="m2 18.5v2c0 .8.7 1.5 1.5 1.5.3 0 .5-.2.5-.5s-.2-.5-.5-.5-.5-.2-.5-.5v-2c0-.3-.2-.5-.5-.5s-.5.2-.5.5z"/><circle cx="5.5" cy="21.5" r=".5"/><path d="m3.5 6h2c.3 0 .5-.2.5-.5v-2c0-.3-.2-.5-.5-.5h-2c-.3 0-.5.2-.5.5v2c0 .3.2.5.5.5zm.5-2h1v1h-1z"/><path d="m3.5 11h2c.3 0 .5-.2.5-.5v-2c0-.3-.2-.5-.5-.5h-2c-.3 0-.5.2-.5.5v2c0 .3.2.5.5.5zm.5-2h1v1h-1z"/><path d="m3.5 16h2c.3 0 .5-.2.5-.5v-2c0-.3-.2-.5-.5-.5h-2c-.3 0-.5.2-.5.5v2c0 .3.2.5.5.5zm.5-2h1v1h-1z"/><path d="m7.5 5h4c.3 0 .5-.2.5-.5s-.2-.5-.5-.5h-4c-.3 0-.5.2-.5.5s.2.5.5.5z"/><path d="m7.5 10h4c.3 0 .5-.2.5-.5s-.2-.5-.5-.5h-4c-.3 0-.5.2-.5.5s.2.5.5.5z"/><path d="m7.5 15h4c.3 0 .5-.2.5-.5s-.2-.5-.5-.5h-4c-.3 0-.5.2-.5.5s.2.5.5.5z"/></g></g><g id="flat" display="none"><g display="inline"><path d="m7.5 0h-5c-1.4 0-2.5 1.1-2.5 2.5v19c0 1.4 1.1 2.5 2.5 2.5h5z" fill="#cae8f9"/><path d="m7.5 24h5c1.4 0 2.5-1.1 2.5-2.5v-20c0-.8.7-1.5 1.5-1.5h-9z" fill="#b7e0f6"/><g><path d="m2.5 23c-.8 0-1.5-.7-1.5-1.5v-2c0-.3.2-.5.5-.5s.5.2.5.5v2c0 .3.2.5.5.5s.5.2.5.5-.2.5-.5.5z" fill="#b7e0f6"/></g><g><circle cx="4.5" cy="22.5" fill="#b7e0f6" r=".5"/></g><g><path d="m5.5 6h-2c-.3 0-.5-.2-.5-.5v-2c0-.3.2-.5.5-.5h2c.3 0 .5.2.5.5v2c0 .3-.2.5-.5.5z" fill="#32d736"/></g><g><path d="m5.5 12h-2c-.3 0-.5-.2-.5-.5v-2c0-.3.2-.5.5-.5h2c.3 0 .5.2.5.5v2c0 .3-.2.5-.5.5z" fill="#32d736"/></g><g><g><path d="m5.5 18h-2c-.3 0-.5-.2-.5-.5v-2c0-.3.2-.5.5-.5h2c.3 0 .5.2.5.5v2c0 .3-.2.5-.5.5z" fill="#32d736"/></g></g><path d="m11.5 16h-4v1h4c.3 0 .5-.2.5-.5s-.2-.5-.5-.5z" fill="#1689fc"/><path d="m11.5 10h-4v1h4c.3 0 .5-.2.5-.5s-.2-.5-.5-.5z" fill="#1689fc"/><path d="m11.5 4h-4v1h4c.3 0 .5-.2.5-.5s-.2-.5-.5-.5z" fill="#1689fc"/><g fill="#18a7fc"><path d="m7.5 16c-.3 0-.5.2-.5.5s.2.5.5.5z"/><path d="m7.5 10c-.3 0-.5.2-.5.5s.2.5.5.5z"/><path d="m7.5 4c-.3 0-.5.2-.5.5s.2.5.5.5z"/><path d="m22.5 17h-1.5v-10.5c0-.8.7-1.5 1.5-1.5.8 0 1.5.7 1.5 1.5v9c0 .8-.7 1.5-1.5 1.5z"/><path d="m18 17.5c0 .8.7 1.5 1.5 1.5h-4.5v-17.5c0-.8.7-1.5 1.5-1.5.8 0 1.5.7 1.5 1.5z"/></g><path d="m19.5 19c-.8 0-1.5-.7-1.5-1.5v-12.5h4.5c-.8 0-1.5.7-1.5 1.5v11c0 .8-.7 1.5-1.5 1.5z" fill="#1689fc"/></g></g></svg>