<svg height="512" viewBox="0 0 512 512" width="512" xmlns="http://www.w3.org/2000/svg"><g id="Outline"><path d="m488 40h-8v320h-208v16h216a8 8 0 0 0 8-8v-320a8 8 0 0 0 -8-8z"/><path d="m80 56h16v96h16v-120h136a24.027 24.027 0 0 1 24 24v248a40.011 40.011 0 0 0 -3.994-2.644l-8.012 13.849a24.1 24.1 0 0 1 12.006 20.795 8 8 0 0 0 8 8h176a8 8 0 0 0 8-8v-312a8 8 0 0 0 -8-8h-144a39.964 39.964 0 0 0 -32 16.028 39.964 39.964 0 0 0 -32-16.028h-144a8 8 0 0 0 -8 8v16h-24a8 8 0 0 0 -8 8v184h16zm209.376 272a24.038 24.038 0 0 1 22.624-16h96a8 8 0 0 0 5.657-2.343l34.343-34.344v52.687zm126.624-43.314v-20.686h20.686zm-104-252.686h136v216h-40a8 8 0 0 0 -8 8v40h-88a39.792 39.792 0 0 0 -24 8.019v-248.019a24.027 24.027 0 0 1 24-24z"/><path d="m256 72v-16h-128v16h80v16h-80v16h80v16h-80v16h80v96h48v-16h-32v-16h32v-16h-32v-16h32v-16h-32v-16h32v-16h-32v-16h32v-16h-32v-16z"/><path d="m240 248h16v16h-16z"/><path d="m432 216h-32v-16h32v-16h-32v-16h32v-16h-32v-16h32v-16h-32v-16h32v-16h-32v-16h32v-16h-128v16h80v16h-80v16h80v16h-80v16h80v16h-80v16h80v16h-80v16h80v16h-80v16h128z"/><path d="m304 248h80v16h-80z"/><path d="m256 426.745v-90.745a112.2 112.2 0 0 0 -75.721-105.966l19.212-51.225a8 8 0 0 0 -7.491-10.809h-96a8 8 0 0 0 -7.491 10.81l15 40 14.982-5.618-10.947-29.192h72.912l-15.726 41.931a112.02 112.02 0 0 0 -132.73 110.069v90.745a23.847 23.847 0 0 1 -7.029 16.971 30.627 30.627 0 0 0 21.656 52.284h194.746a30.627 30.627 0 0 0 21.656-52.284 23.847 23.847 0 0 1 -7.029-16.971zm-14.627 53.255h-194.746a14.628 14.628 0 0 1 -10.343-24.971 39.735 39.735 0 0 0 11.716-28.284v-90.745a96 96 0 0 1 192 0v90.745a39.735 39.735 0 0 0 11.716 28.284 14.628 14.628 0 0 1 -10.343 24.971z"/><path d="m107.359 264.894a80.254 80.254 0 0 0 -18.088 12.8l10.954 11.662a64.285 64.285 0 0 1 14.483-10.252z"/><path d="m64 336v40h16v-40a63.575 63.575 0 0 1 11-35.834l-13.241-8.983a79.514 79.514 0 0 0 -13.759 44.817z"/><path d="m136 320h16a16.019 16.019 0 0 1 16 16h16a32.036 32.036 0 0 0 -32-32v-16h-16v16a32 32 0 0 0 0 64h16a16 16 0 0 1 0 32h-16a16.019 16.019 0 0 1 -16-16h-16a32.036 32.036 0 0 0 32 32v16h16v-16a32 32 0 0 0 0-64h-16a16 16 0 0 1 0-32z"/><path d="m472 392h-168a7.993 7.993 0 0 0 -4.438 1.344l-24 16a8 8 0 0 0 0 13.312l24 16a7.993 7.993 0 0 0 4.438 1.344h144v8a8.009 8.009 0 0 1 -8 8h-80v16h80a24.027 24.027 0 0 0 24-24v-8h8a24 24 0 0 0 0-48zm-160 32v-16h136v16zm160 0h-8v-16h8a8 8 0 0 1 0 16z"/></g></svg>