<svg id="Layer_1" enable-background="new 0 0 468 468" height="512" viewBox="0 0 468 468" width="512" xmlns="http://www.w3.org/2000/svg"><g><g><g><path d="m353 468h-238c-19.299 0-35-15.701-35-35v-333c0-19.299 15.701-35 35-35 2.762 0 5 2.238 5 5s-2.238 5-5 5c-13.785 0-25 11.215-25 25v333c0 13.785 11.215 25 25 25h238c13.785 0 25-11.215 25-25v-333c0-13.785-11.215-25-25-25-2.762 0-5-2.238-5-5s2.238-5 5-5c19.299 0 35 15.701 35 35v333c0 19.299-15.701 35-35 35z"/><path d="m316.233 40h-14.982v-35c0-2.762-2.238-5-5-5h-123.506c-2.762 0-5 2.238-5 5v35h-14.981c-2.762 0-5 2.238-5 5v50c0 2.762 2.238 5 5 5h163.47c2.762 0 5-2.238 5-5v-50c-.001-2.762-2.239-5-5.001-5zm-138.488-30h113.506v30h-113.506zm133.488 80h-153.47v-40h153.47z"/></g><g><g><g><path d="m152.833 328c-19.299 0-35-15.701-35-35s15.701-35 35-35 35 15.701 35 35-15.701 35-35 35zm0-60c-13.785 0-25 11.215-25 25s11.215 25 25 25 25-11.215 25-25-11.215-25-25-25z"/><path d="m148.718 305.414c-1.382 0-2.702-.571-3.647-1.58l-5.488-5.854c-1.889-2.015-1.787-5.179.228-7.067s5.178-1.787 7.067.228l1.816 1.938 10.073-10.888c1.876-2.027 5.039-2.15 7.065-.274 2.027 1.875 2.15 5.038.274 7.065l-13.719 14.828c-1.11 1.071-2.333 1.606-3.669 1.604z"/></g><g><path d="m345.167 279h-129.334c-2.762 0-5-2.238-5-5s2.238-5 5-5h129.334c2.762 0 5 2.238 5 5s-2.238 5-5 5z"/><path d="m305.167 317h-89.334c-2.762 0-5-2.238-5-5s2.238-5 5-5h89.334c2.762 0 5 2.238 5 5s-2.238 5-5 5z"/></g></g><g><g><path d="m345.167 379h-129.334c-2.762 0-5-2.238-5-5s2.238-5 5-5h129.334c2.762 0 5 2.238 5 5s-2.238 5-5 5z"/><path d="m305.167 417h-89.334c-2.762 0-5-2.238-5-5s2.238-5 5-5h89.334c2.762 0 5 2.238 5 5s-2.238 5-5 5z"/></g></g></g></g><ellipse cx="332.034" cy="312" rx="6.5" ry="6.508"/><ellipse cx="332.034" cy="412" rx="6.5" ry="6.508"/><g><path d="m234 128c-31.753 0-57.585 25.845-57.585 57.611 0 31.768 25.832 57.612 57.585 57.612s57.585-25.845 57.585-57.612c0-31.766-25.832-57.611-57.585-57.611zm0 105.224c-26.238 0-47.585-21.358-47.585-47.612s21.347-47.612 47.585-47.612 47.585 21.358 47.585 47.611c0 26.254-21.347 47.613-47.585 47.613z"/><path d="m259 180.611h-20v-20.011c0-2.762-2.238-5-5-5s-5 2.238-5 5v20.012h-20c-2.762 0-5 2.238-5 5s2.238 5 5 5h20v20.012c0 2.762 2.238 5 5 5s5-2.238 5-5v-20.012h20c2.762 0 5-2.238 5-5s-2.238-5.001-5-5.001z"/></g><g><path d="m152.833 428c-19.299 0-35-15.701-35-35s15.701-35 35-35 35 15.701 35 35-15.701 35-35 35zm0-60c-13.785 0-25 11.215-25 25s11.215 25 25 25 25-11.215 25-25-11.215-25-25-25z"/><path d="m148.718 405.414c-1.382 0-2.702-.571-3.647-1.58l-5.488-5.854c-1.889-2.015-1.787-5.179.228-7.067s5.178-1.787 7.067.228l1.816 1.938 10.073-10.888c1.876-2.027 5.039-2.15 7.065-.274 2.027 1.875 2.15 5.038.274 7.065l-13.719 14.828c-1.11 1.071-2.333 1.606-3.669 1.604z"/></g></g></svg>