<?xml version="1.0" encoding="iso-8859-1"?>
<!-- Generator: Adobe Illustrator 19.0.0, SVG Export Plug-In . SVG Version: 6.00 Build 0)  -->
<svg version="1.1" id="Capa_1" xmlns="http://www.w3.org/2000/svg" xmlns:xlink="http://www.w3.org/1999/xlink" x="0px" y="0px"
	 viewBox="0 0 511.999 511.999" style="enable-background:new 0 0 511.999 511.999;" xml:space="preserve">
<g>
	<g>
		<path d="M390.714,147.601h-19.667c-2.848-11.592-7.406-22.594-13.598-32.815l13.91-13.909c3.015-3.016,4.675-7.023,4.675-11.288
			c0-4.264-1.66-8.272-4.675-11.287l-17.584-17.584c-6.239-6.237-16.336-6.24-22.574,0l-13.909,13.91
			c-10.223-6.19-21.226-10.75-32.815-13.598V41.364c0-8.802-7.16-15.962-15.962-15.962h-24.867c-8.803,0-15.963,7.16-15.963,15.962
			v19.667c-11.595,2.849-22.598,7.407-32.815,13.597l-13.91-13.909c-6.233-6.237-16.336-6.241-22.572-0.001l-17.586,17.585
			c-6.222,6.223-6.222,16.35,0,22.573l13.91,13.909c-6.189,10.224-10.749,21.223-13.597,32.815h-19.667
			c-8.802,0-15.962,7.16-15.962,15.962v24.867c0.001,8.803,7.161,15.963,15.962,15.963h19.667
			c2.848,11.591,7.406,22.593,13.597,32.815l-13.91,13.91c-6.223,6.224-6.222,16.351,0,22.573l17.585,17.585
			c6.238,6.236,16.335,6.237,22.572,0l13.911-13.91c10.221,6.188,21.223,10.748,32.815,13.597v19.667
			c0,8.802,7.16,15.962,15.963,15.962h24.867c8.802,0,15.962-7.16,15.962-15.962v-19.667c11.59-2.847,22.591-7.405,32.815-13.597
			l13.909,13.908c6.238,6.24,16.337,6.238,22.574,0.001l17.583-17.584c6.24-6.235,6.239-16.334,0.001-22.574l-13.91-13.909
			c6.19-10.223,10.75-21.226,13.598-32.815h19.666c8.802,0,15.962-7.16,15.962-15.962v-24.867
			C406.675,154.761,399.515,147.601,390.714,147.601z M391.673,188.429c0,0.53-0.431,0.961-0.961,0.961h-24.297
			c-4.357,0-8.155,3.104-9.03,7.384c-2.642,12.951-7.682,25.117-14.989,36.169c-2.399,3.641-1.906,8.519,1.171,11.597l17.184,17.184
			c0.188,0.187,0.282,0.415,0.282,0.68c0,0.264-0.095,0.492-0.282,0.679l-17.584,17.585c-0.374,0.373-0.985,0.373-1.359-0.001
			l-17.183-17.183c-3.084-3.082-7.966-3.571-11.605-1.165c-11.046,7.301-23.211,12.343-36.154,14.982
			c-4.282,0.87-7.391,4.667-7.391,9.03v24.298c0,0.53-0.431,0.961-0.961,0.961h-24.867c-0.53,0-0.962-0.431-0.962-0.961v-24.298
			c0-4.362-3.107-8.161-7.383-9.029c-12.95-2.641-25.115-7.682-36.162-14.984c-3.638-2.405-8.52-1.917-11.603,1.166l-17.186,17.184
			c-0.373,0.373-0.984,0.373-1.357,0l-17.585-17.585c-0.375-0.374-0.375-0.984,0-1.358l17.184-17.184
			c3.081-3.082,3.571-7.961,1.165-11.605c-7.301-11.046-12.343-23.211-14.982-36.154c-0.87-4.282-4.667-7.39-9.03-7.39h-24.298
			c-0.53,0-0.961-0.431-0.961-0.961v-24.868c0-0.53,0.431-0.961,0.961-0.961h24.299c4.361,0,8.158-3.106,9.029-7.383
			c2.641-12.949,7.682-25.115,14.982-36.159c2.408-3.642,1.919-8.523-1.164-11.607l-17.184-17.183
			c-0.375-0.375-0.375-0.985-0.001-1.359l17.586-17.585c0.373-0.373,0.983-0.374,1.358,0.001l17.184,17.184
			c3.081,3.079,7.956,3.571,11.606,1.164c11.042-7.3,23.207-12.341,36.162-14.983c4.276-0.873,7.38-4.671,7.38-9.029V41.364
			c0-0.53,0.432-0.961,0.962-0.961h24.867c0.53,0,0.961,0.431,0.961,0.961v24.297c0,4.357,3.104,8.155,7.384,9.03
			c12.951,2.642,25.117,7.682,36.165,14.986c3.642,2.404,8.521,1.911,11.601-1.168l17.184-17.185
			c0.373-0.374,0.985-0.373,1.358,0.001l17.585,17.584c0.187,0.187,0.281,0.415,0.281,0.679c0,0.265-0.095,0.493-0.282,0.68
			l-17.184,17.184c-3.08,3.08-3.571,7.96-1.165,11.605c7.302,11.046,12.344,23.212,14.984,36.166
			c0.875,4.275,4.672,7.378,9.029,7.378h24.298c0.529,0,0.96,0.431,0.96,0.961V188.429z"/>
	</g>
</g>
<g>
	<g>
		<path d="M256.267,95.862c-44.187,0-80.135,35.948-80.135,80.135s35.948,80.135,80.135,80.135
			c44.187,0,80.134-35.948,80.134-80.135C336.4,131.81,300.453,95.862,256.267,95.862z M256.267,241.131
			c-35.915,0-65.134-29.219-65.134-65.134s29.219-65.134,65.134-65.134c35.914,0,65.133,29.219,65.133,65.134
			S292.181,241.131,256.267,241.131z"/>
	</g>
</g>
<g>
	<g>
		<path d="M495.214,412.85h-18.761v-12.896c0-8.313-6.502-15.064-14.803-15.367h-0.001c-49.516-1.798-56.874-22.409-110.748-30.764
			c-46.679-7.237-81.879,17.287-94.902,28.214c-13.023-10.927-48.226-35.451-94.902-28.214
			c-53.855,8.352-61.208,28.926-110.601,30.759c-8.383,0.312-14.951,7.13-14.951,15.524v12.743H16.785
			C7.53,412.85,0,420.38,0,429.636v17.104c0,9.257,7.53,16.787,16.786,16.787h209.491c3.396,13.456,15.626,23.07,29.644,23.07
			c14.152,0,26.26-9.568,29.646-23.07h82.346c4.143,0,7.5-3.357,7.5-7.5s-3.357-7.5-7.5-7.5h-84.605
			c-5.976,0-11.039,4.263-12.038,10.139c-1.274,7.493-7.729,12.933-15.35,12.933c-7.399,0-13.821-5.254-15.269-12.495
			c-1.227-6.128-6.602-10.576-12.783-10.576H16.786c-0.984,0-1.785-0.801-1.785-1.786v-17.105c0-0.984,0.801-1.785,1.785-1.785
			c7.536,0,471.83,0,478.427,0c0.984,0,1.785,0.801,1.785,1.785v17.104c0,0.985-0.801,1.786-1.785,1.786h-92.301
			c-4.143,0-7.5,3.357-7.5,7.5s3.357,7.5,7.5,7.5h92.301c9.256,0,16.786-7.53,16.786-16.787v-17.104
			C512,420.38,504.469,412.85,495.214,412.85z M248.453,412.85H50.548v-12.743c0-0.284,0.228-0.523,0.507-0.533
			c52.931-1.966,61.063-22.973,112.343-30.927c43.303-6.712,76.313,19.037,85.041,26.715
			C248.511,407.224,248.51,403.512,248.453,412.85z M461.452,412.85H263.547c-0.057-9.339-0.059-5.627,0.014-17.488
			c8.745-7.691,41.752-33.425,85.041-26.715c51.352,7.964,59.424,29.005,112.501,30.932c0.192,0.007,0.349,0.176,0.349,0.376V412.85
			z"/>
	</g>
</g>
<g>
	<g>
		<path d="M290.488,187.003c-3.587-2.07-8.174-0.843-10.246,2.745l-8.112,14.049h-32.1l-16.05-27.8l16.05-27.8h32.1l8.112,14.049
			c2.072,3.587,6.659,4.815,10.246,2.745c3.588-2.071,4.816-6.658,2.745-10.246l-8.411-14.568c-2.483-4.306-7.114-6.98-12.087-6.98
			h-33.308c-4.97,0-9.602,2.674-12.086,6.978l-16.653,28.844c-2.485,4.305-2.485,9.652,0,13.956l16.653,28.845
			c2.485,4.303,7.116,6.977,12.086,6.977h33.308c4.971,0,9.602-2.674,12.085-6.978l8.413-14.571
			C295.304,193.662,294.076,189.074,290.488,187.003z"/>
	</g>
</g>
<g>
</g>
<g>
</g>
<g>
</g>
<g>
</g>
<g>
</g>
<g>
</g>
<g>
</g>
<g>
</g>
<g>
</g>
<g>
</g>
<g>
</g>
<g>
</g>
<g>
</g>
<g>
</g>
<g>
</g>
</svg>
