<svg id="Capa_1" enable-background="new 0 0 512.001 512.001" height="512" viewBox="0 0 512.001 512.001" width="512" xmlns="http://www.w3.org/2000/svg"><g><path d="m272.44.009c-5.524-.237-10.178 4.054-10.411 9.571-.232 5.518 4.053 10.179 9.571 10.411 123.729 5.206 220.541 108.868 220.4 235.999-.081 75.718-39.081 152.293-98.042 194.345l-6.955-14.911c-1.465-3.141-4.451-5.299-7.893-5.704-3.444-.408-6.85 1.001-9.003 3.715l-41.7 52.54c-2.354 2.967-2.831 7.01-1.23 10.443 1.602 3.433 5.004 5.666 8.791 5.77 0 0 67.242 1.833 67.333 1.833 3.362 0 6.508-1.691 8.359-4.513 1.901-2.897 2.167-6.573.702-9.714l-9.82-21.055c64.164-44.102 109.366-126.901 109.458-212.728.15-134.207-101.289-250.184-239.56-256.002zm84.068 482.731 19.209-24.201 11.681 25.044z"/><path d="m173.809 159.754c-3.45-4.311-9.741-5.011-14.056-1.562-4.313 3.45-5.012 9.743-1.562 14.056l47.002 58.753h-69.193c-22.056 0-40 17.944-40 40 0 19.512 14.047 35.795 32.557 39.295l21.118 63.363c5.46 16.354 20.709 27.343 37.945 27.343h136.76c17.236 0 32.485-10.988 37.947-27.348l21.116-63.358c18.51-3.499 32.557-19.783 32.557-39.295 0-22.056-17.944-40-40-40h-69.194l47.002-58.753c3.45-4.313 2.751-10.605-1.562-14.056s-10.606-2.75-14.056 1.562l-56.998 71.247h-50.387zm169.546 207.57c-2.731 8.181-10.356 13.677-18.975 13.677h-136.76c-8.618 0-16.243-5.496-18.973-13.672l-18.773-56.328h212.252zm52.645-96.323c0 11.028-8.972 20-20 20h-240c-11.028 0-20-8.972-20-20s8.972-20 20-20h240c11.029 0 20 8.971 20 20z"/><circle cx="75" cy="424.001" r="10"/><path d="m114.546 446.102c-4.39-3.354-10.664-2.516-14.018 1.871-3.354 4.388-2.517 10.664 1.871 14.018 40.06 30.621 87.488 47.911 137.16 50.001.144.006.286.009.428.009 5.329 0 9.758-4.205 9.984-9.579.232-5.519-4.053-10.18-9.57-10.412-45.552-1.918-89.073-17.792-125.855-45.908z"/><path d="m56.806 382.475c-24.065-38.476-36.792-82.212-36.806-126.478-.028-75.782 36.403-145.383 98.015-188.388l6.982 14.969c1.628 3.489 5.14 5.772 9.063 5.772 3.029 0 5.923-1.378 7.832-3.783l41.7-52.54c2.354-2.967 2.831-7.01 1.23-10.443-1.602-3.433-5.004-5.666-8.791-5.77l-67.06-1.829c-3.432-.118-6.731 1.611-8.633 4.509s-2.167 6.573-.702 9.714l9.812 21.037c-69.857 47.453-109.478 125.522-109.448 206.759.015 48.019 13.795 95.419 39.849 137.077 2.934 4.69 9.108 6.099 13.781 3.176 4.683-2.929 6.105-9.099 3.176-13.782zm98.686-347.214-19.209 24.201-11.681-25.044z"/></g></svg>