<svg id="Layer_1" enable-background="new 0 0 512.016 512.016" height="512" viewBox="0 0 512.016 512.016" width="512" xmlns="http://www.w3.org/2000/svg"><g><circle cx="256" cy="256.008" fill="#383c6b" r="256"/><path d="m453.314 419.117 29.031-139.506c-12.773 0-439.927 0-452.69 0l29.031 139.506c46.956 56.739 117.912 92.891 197.314 92.891s150.358-36.152 197.314-92.891z" fill="#ffcd38"/><g fill="#ffac00"><path d="m71.539 279.611c-24.056 0-39.601 0-41.884 0l29.031 139.506c14.979 18.1 32.409 34.092 51.768 47.496z"/><path d="m149.951 462.559c-8.548 0-15.477-6.929-15.477-15.477v-107.386c0-8.548 6.929-15.477 15.477-15.477s15.477 6.929 15.477 15.477v107.385c0 8.548-6.929 15.478-15.477 15.478z"/><path d="m220.651 462.559c-8.548 0-15.477-6.929-15.477-15.477v-107.386c0-8.548 6.929-15.477 15.477-15.477s15.477 6.929 15.477 15.477v107.385c0 8.548-6.929 15.478-15.477 15.478z"/><path d="m291.349 462.559c-8.548 0-15.477-6.929-15.477-15.477v-107.386c0-8.548 6.929-15.477 15.477-15.477s15.477 6.929 15.477 15.477v107.385c.001 8.548-6.928 15.478-15.477 15.478z"/><path d="m362.048 462.559c-8.548 0-15.477-6.929-15.477-15.477v-107.386c0-8.548 6.929-15.477 15.477-15.477s15.477 6.929 15.477 15.477v107.385c.001 8.548-6.928 15.478-15.477 15.478z"/></g><path d="m149.951 400.059c-8.548 0-15.477-6.929-15.477-15.477v62.5c0 8.548 6.929 15.477 15.477 15.477s15.477-6.929 15.477-15.477v-62.5c0 8.547-6.929 15.477-15.477 15.477z" fill="#ff8500"/><path d="m220.651 400.059c-8.548 0-15.478-6.929-15.478-15.477v62.5c0 8.548 6.929 15.477 15.478 15.477 8.548 0 15.477-6.929 15.477-15.477v-62.5c0 8.547-6.929 15.477-15.477 15.477z" fill="#ff8500"/><path d="m291.35 400.059c-8.548 0-15.477-6.929-15.477-15.477v62.5c0 8.548 6.929 15.477 15.477 15.477s15.477-6.929 15.477-15.477v-62.5c0 8.547-6.929 15.477-15.477 15.477z" fill="#ff8500"/><path d="m362.049 400.059c-8.548 0-15.478-6.929-15.478-15.477v62.5c0 8.548 6.929 15.477 15.478 15.477 8.548 0 15.477-6.929 15.477-15.477v-62.5c0 8.547-6.929 15.477-15.477 15.477z" fill="#ff8500"/><path d="m85.074 242.089 166.322-166.323c6.139-6.139 6.139-16.092 0-22.231s-16.092-6.139-22.231 0l-186.738 186.739c-.571.571-1.071 1.184-1.535 1.815z" fill="#ffcd38"/><path d="m426.926 242.089h44.182c-.465-.631-.965-1.244-1.536-1.815l-186.737-186.738c-6.139-6.139-16.092-6.139-22.231 0s-6.139 16.092 0 22.231z" fill="#ffcd38"/><path d="m484.766 282.032h-457.532c-15.041 0-27.234-12.193-27.234-27.234s12.193-27.234 27.234-27.234h457.532c15.041 0 27.234 12.193 27.234 27.234s-12.193 27.234-27.234 27.234z" fill="#ffac00"/><path d="m80 254.798c0-15.041 12.193-27.234 27.234-27.234h-80c-15.041 0-27.234 12.193-27.234 27.234s12.193 27.234 27.234 27.234h80c-15.041 0-27.234-12.193-27.234-27.234z" fill="#ff8500"/><path d="m161.947 227.564v12.709c0 7.988 6.537 14.525 14.525 14.525h159.057c7.988 0 14.525-6.537 14.525-14.525v-12.709z" fill="#ff8500"/><path d="m57.087 263.882c-5.048 0-9.078-4.129-9.078-9.078 0-5.673 5.173-10.022 10.858-8.909 4.334.904 7.299 4.627 7.299 8.909-.001 5.12-4.206 9.078-9.079 9.078z" fill="#ffac00"/><ellipse cx="413.833" cy="254.798" fill="#ccde3d" rx="98.167" ry="98.166" transform="matrix(.707 -.707 .707 .707 -58.96 367.253)"/><path d="m368.805 280.795c-23.132-40.065-14.805-89.654 17.307-120.184-7.305 2.156-14.475 5.196-21.362 9.172-46.952 27.108-63.039 87.146-35.931 134.098s87.146 63.039 134.098 35.931c6.887-3.976 13.104-8.665 18.624-13.914-42.496 12.546-89.605-5.037-112.736-45.103z" fill="#afc728"/><path d="m450.137 239.106h-20.613v-20.612c0-8.666-7.025-15.691-15.691-15.691s-15.691 7.025-15.691 15.691v20.612h-20.612c-8.666 0-15.691 7.026-15.691 15.691 0 8.666 7.025 15.691 15.691 15.691h20.612v20.613c0 8.666 7.025 15.691 15.691 15.691s15.691-7.025 15.691-15.691v-20.613h20.613c8.666 0 15.691-7.025 15.691-15.691 0-8.665-7.025-15.691-15.691-15.691z" fill="#fffeff"/></g></svg>